<svg width="96" height="20" viewBox="0 0 96 20" fill="none" xmlns="http://www.w3.org/2000/svg">
<mask id="mask0_177_2519" style="mask-type:luminance" maskUnits="userSpaceOnUse" x="0" y="0" width="96" height="20">
<path d="M95.1236 0H0.876465V20H95.1236V0Z" fill="white"/>
</mask>
<g mask="url(#mask0_177_2519)">
<path d="M26.7514 16.9454L27.8338 18.2207C27.9669 18.3904 28.12 18.5363 28.2884 18.6539C28.4057 18.7257 28.5338 18.7691 28.6653 18.7817V18.877H27.2686V18.7817C27.3325 18.7885 27.3965 18.7711 27.4514 18.7319C27.4674 18.7198 27.4808 18.7035 27.4905 18.684C27.5001 18.6646 27.5056 18.6428 27.5067 18.6203C27.5074 18.6023 27.5074 18.5842 27.5067 18.5661C27.5048 18.5469 27.4993 18.5284 27.4907 18.512C27.4771 18.4866 27.4618 18.4625 27.445 18.44C27.424 18.4107 27.3933 18.3739 27.3536 18.3273L26.3356 17.1377V18.2591C26.3356 18.3414 26.3356 18.408 26.3402 18.4595C26.3414 18.5019 26.3468 18.5441 26.3562 18.5851C26.3624 18.6142 26.3746 18.641 26.3918 18.6631C26.4105 18.6847 26.4317 18.703 26.4549 18.7172C26.5151 18.7574 26.5831 18.7785 26.6523 18.7784H26.7514V18.8737H25.4995V18.7784H25.6032C25.6525 18.7842 25.7023 18.7758 25.7482 18.7539C25.7942 18.7321 25.8351 18.6974 25.8673 18.6528C25.9137 18.5288 25.9317 18.3924 25.9194 18.2575V16.0113C25.9194 15.9323 25.9194 15.8678 25.9167 15.8164C25.9156 15.7733 25.9101 15.7306 25.9002 15.6891C25.8933 15.6595 25.8811 15.632 25.8646 15.6084C25.8467 15.5864 25.8259 15.5681 25.8029 15.5543C25.742 15.5141 25.6734 15.493 25.6037 15.4931H25.4995V15.3978H26.7514V15.4931H26.6523C26.6236 15.4928 26.595 15.4959 26.5668 15.5023C26.5375 15.5091 26.509 15.52 26.4818 15.5348C26.4555 15.5484 26.431 15.5667 26.4092 15.5889C26.3883 15.6118 26.3726 15.6404 26.3635 15.6723C26.3416 15.7832 26.3329 15.8971 26.3379 16.0108V17.0759C26.3937 17.0218 26.4581 16.9546 26.5303 16.8756C26.6025 16.7965 26.6769 16.7131 26.7528 16.627C26.8286 16.5409 26.9036 16.4516 26.9776 16.3649C27.0516 16.2783 27.1197 16.1965 27.18 16.1223C27.2403 16.0481 27.2915 15.9832 27.333 15.9279C27.3746 15.8727 27.4007 15.837 27.4121 15.8196C27.4461 15.7678 27.4666 15.7053 27.471 15.6398C27.4706 15.6195 27.4662 15.5996 27.4583 15.5816C27.4504 15.5636 27.4391 15.548 27.4253 15.5359C27.3797 15.5005 27.3252 15.4846 27.2709 15.4909H27.2033V15.3956H28.282V15.4909C28.2235 15.4928 28.1653 15.503 28.1088 15.5213C28.0793 15.5332 28.0504 15.5469 28.022 15.5624C27.9857 15.5827 27.9505 15.6061 27.9169 15.6323C27.879 15.6615 27.837 15.6967 27.7913 15.7406C27.7456 15.7844 27.6958 15.8332 27.6414 15.8927L26.7514 16.9454Z" fill="#666666"/>
<path d="M29.7371 16.4559C29.8699 16.4542 30.0015 16.4873 30.1222 16.5529C30.2365 16.6161 30.3392 16.7051 30.4247 16.815C30.51 16.9267 30.5769 17.0564 30.6221 17.1973C30.669 17.3442 30.6928 17.5 30.6924 17.657C30.6927 17.8233 30.6681 17.9883 30.6198 18.1444C30.5735 18.2948 30.5048 18.4342 30.4169 18.5559C30.331 18.675 30.2256 18.7723 30.1072 18.8418C29.985 18.9143 29.85 18.9515 29.7133 18.9501C29.5809 18.9522 29.45 18.917 29.3313 18.8472C29.2183 18.7818 29.1177 18.6897 29.0357 18.5765C28.9525 18.4611 28.8879 18.3286 28.8452 18.1855C28.8002 18.039 28.7774 17.8843 28.7776 17.7285C28.7775 17.5693 28.8011 17.4113 28.847 17.2617C28.8916 17.1134 28.9578 16.9756 29.0426 16.8545C29.1267 16.7365 29.2297 16.6394 29.3455 16.5686C29.4668 16.4958 29.6011 16.4587 29.7371 16.4603M29.6695 16.6271C29.6064 16.6267 29.544 16.6428 29.4867 16.6742C29.4247 16.7092 29.3712 16.7621 29.3309 16.828C29.2803 16.9108 29.2431 17.0041 29.2212 17.103C29.1915 17.2364 29.1776 17.374 29.1801 17.5119C29.18 17.6726 29.1953 17.8329 29.2258 17.9895C29.2519 18.1295 29.2941 18.2645 29.3515 18.3907C29.3999 18.4982 29.4672 18.5922 29.5488 18.6664C29.6232 18.7337 29.7143 18.7699 29.8079 18.7693C29.8738 18.7699 29.9391 18.7539 29.9993 18.7221C30.0609 18.6874 30.1137 18.6339 30.1524 18.5673C30.2011 18.4821 30.2355 18.3867 30.2538 18.2862C30.2807 18.1459 30.2931 18.0023 30.2908 17.8584C30.2917 17.6979 30.2779 17.5378 30.2497 17.3808C30.2263 17.2442 30.1859 17.1125 30.13 16.9899C30.0825 16.885 30.0158 16.7939 29.9349 16.7234C29.858 16.6591 29.7659 16.6252 29.6717 16.6265" fill="#666666"/>
<path d="M31.5643 16.4559V16.9845C31.7318 16.6321 31.9022 16.4559 32.0755 16.4559C32.1474 16.4553 32.217 16.4859 32.2711 16.542C32.2958 16.5673 32.3158 16.5982 32.33 16.633C32.3435 16.6669 32.3504 16.7039 32.3501 16.7413C32.3513 16.8045 32.3312 16.8656 32.2944 16.9114C32.2769 16.9336 32.2556 16.9512 32.232 16.963C32.2084 16.9749 32.183 16.9807 32.1573 16.9801C32.1285 16.9787 32.1005 16.969 32.0755 16.952C32.0449 16.9341 32.0152 16.9135 31.9842 16.8919C31.9531 16.8702 31.9275 16.8507 31.9028 16.8317C31.8863 16.8167 31.8668 16.807 31.8462 16.8036C31.8233 16.8057 31.8015 16.8163 31.784 16.8339C31.7571 16.8572 31.733 16.8847 31.7123 16.9157C31.6848 16.9557 31.6593 16.9977 31.636 17.0413C31.6104 17.09 31.5853 17.1437 31.5606 17.2038V18.3241C31.5602 18.3877 31.5639 18.4513 31.5716 18.5142C31.5768 18.5661 31.5925 18.6156 31.6173 18.6588C31.6441 18.7005 31.6806 18.7322 31.7224 18.7498C31.7812 18.773 31.8431 18.7838 31.9051 18.7817V18.8738H30.8954V18.7817C30.9476 18.7828 30.9998 18.7776 31.0512 18.766C31.0878 18.7582 31.1213 18.7366 31.1467 18.7043C31.1715 18.666 31.1873 18.6206 31.1924 18.5727C31.2022 18.4973 31.2067 18.421 31.2056 18.3447V17.4366C31.2104 17.2739 31.2054 17.1111 31.1905 16.9493C31.1874 16.9068 31.1706 16.8675 31.1436 16.8394C31.1167 16.8112 31.0816 16.7965 31.0457 16.7982C30.9936 16.8 30.9422 16.813 30.894 16.8366L30.8721 16.7446L31.4724 16.4565L31.5643 16.4559Z" fill="#666666"/>
<path d="M32.7948 17.4106C32.7929 17.57 32.8128 17.7287 32.8537 17.8806C32.8875 18.0087 32.9411 18.1283 33.0118 18.2331C33.073 18.3262 33.1511 18.4017 33.2402 18.4541C33.3255 18.504 33.4193 18.53 33.5144 18.5299C33.6359 18.5331 33.7548 18.4887 33.8529 18.4037C33.9658 18.2887 34.0494 18.1387 34.0942 17.9705L34.1618 18.0247C34.1451 18.1421 34.1144 18.256 34.0704 18.3631C34.0266 18.4726 33.9687 18.5733 33.8986 18.6615C33.8284 18.7488 33.7454 18.8203 33.6537 18.8727C33.5591 18.9271 33.4551 18.9547 33.3499 18.9533C33.2343 18.9543 33.1199 18.9249 33.015 18.8672C32.9102 18.8099 32.8168 18.727 32.7408 18.6241C32.6584 18.5115 32.5947 18.3814 32.5531 18.2407C32.5055 18.0789 32.4821 17.9085 32.4841 17.7371C32.4815 17.5532 32.5053 17.3701 32.5544 17.1956C32.5963 17.0482 32.6622 16.9119 32.7482 16.7944C32.8283 16.6864 32.9279 16.6013 33.0397 16.5453C33.1537 16.488 33.2763 16.4591 33.4001 16.4602C33.5045 16.4592 33.608 16.4822 33.7049 16.5279C33.7959 16.572 33.8781 16.6382 33.9461 16.7223C34.0157 16.8092 34.0697 16.9118 34.1051 17.0239C34.145 17.1497 34.1647 17.2833 34.1632 17.4176L32.7948 17.4106ZM32.7948 17.2617H33.7127C33.7131 17.1534 33.6976 17.0458 33.667 16.9438C33.6331 16.8512 33.5768 16.7726 33.5052 16.718C33.4391 16.665 33.3612 16.6364 33.2814 16.6357C33.2224 16.6357 33.164 16.6502 33.11 16.6785C33.0538 16.7072 33.003 16.749 32.9606 16.8014C32.9141 16.8586 32.8764 16.9249 32.8491 16.9974C32.8181 17.0813 32.7994 17.1709 32.7938 17.2622" fill="#666666"/>
<path d="M35.5539 18.5375C35.4339 18.6582 35.3057 18.7669 35.1706 18.8624C35.0928 18.9057 35.0079 18.9278 34.922 18.9269C34.8573 18.9276 34.793 18.9127 34.7333 18.883C34.6767 18.8544 34.626 18.8116 34.5848 18.7574C34.5418 18.702 34.5083 18.6373 34.4861 18.5668C34.4616 18.4872 34.4495 18.4029 34.4505 18.3182C34.4499 18.2557 34.4574 18.1934 34.4729 18.1336C34.4881 18.0755 34.5111 18.0206 34.541 17.9711C34.5742 17.917 34.6132 17.8682 34.657 17.826C34.709 17.7753 34.7645 17.7298 34.8229 17.6901C35.0571 17.5406 35.3017 17.4151 35.5539 17.3148V17.2227C35.5557 17.1234 35.5474 17.0241 35.5292 16.9271C35.5166 16.8591 35.4922 16.7949 35.4575 16.7386C35.428 16.6926 35.3876 16.6579 35.3414 16.639C35.2914 16.6182 35.2387 16.6079 35.1856 16.6087C35.1434 16.6081 35.1015 16.6165 35.0618 16.6336C35.0275 16.6479 34.9956 16.6693 34.9677 16.6969C34.9422 16.7223 34.9217 16.7539 34.9074 16.7895C34.8943 16.8235 34.8874 16.8605 34.8873 16.8978L34.8919 17.0468C34.8955 17.1129 34.8773 17.1781 34.8411 17.2287C34.8241 17.2501 34.8033 17.2669 34.7803 17.278C34.7573 17.2891 34.7326 17.2943 34.7077 17.2931C34.6831 17.294 34.6587 17.2885 34.6361 17.2769C34.6135 17.2653 34.5933 17.2479 34.5771 17.226C34.541 17.1753 34.5225 17.1103 34.5254 17.044C34.5262 16.9691 34.5432 16.8956 34.5748 16.8307C34.6099 16.7563 34.6578 16.6915 34.7155 16.6406C34.7842 16.5796 34.8616 16.5336 34.9439 16.5047C35.0439 16.4678 35.1481 16.4496 35.2528 16.4506C35.3858 16.4464 35.5181 16.4736 35.6421 16.5307C35.6942 16.5557 35.7416 16.5929 35.7815 16.6399C35.8213 16.687 35.8529 16.743 35.8742 16.8047C35.9078 16.9519 35.921 17.1046 35.9135 17.2569V18.055C35.9135 18.1677 35.9135 18.2586 35.9162 18.3258C35.919 18.3929 35.9212 18.4417 35.924 18.4666C35.9263 18.5038 35.9388 18.5392 35.9596 18.5673C35.9753 18.5841 35.9956 18.5934 36.0167 18.5933C36.0307 18.5934 36.0446 18.5908 36.0579 18.5857C36.0743 18.5783 36.0898 18.5679 36.1035 18.5548C36.1247 18.5354 36.1449 18.5144 36.1639 18.492C36.1872 18.4655 36.2169 18.4308 36.2552 18.3881V18.5316C36.092 18.7886 35.9375 18.9169 35.7919 18.9166C35.7601 18.9179 35.7284 18.9108 35.6992 18.8958C35.6699 18.8808 35.6439 18.8583 35.6229 18.8299C35.5723 18.7426 35.5491 18.637 35.5576 18.5316M35.5576 18.3648V17.4751C35.4479 17.526 35.3584 17.5698 35.288 17.6056C35.2359 17.6313 35.1851 17.6606 35.1358 17.6933C35.0409 17.7507 34.9574 17.8316 34.8909 17.9305C34.8423 18.0089 34.8167 18.104 34.8178 18.2012C34.8172 18.2592 34.8255 18.3169 34.8425 18.3713C34.858 18.4212 34.8809 18.4674 34.9101 18.5077C34.9371 18.5453 34.9704 18.5757 35.0079 18.5971C35.0445 18.6183 35.0846 18.6294 35.1253 18.6296C35.2887 18.6 35.4401 18.5102 35.558 18.3729" fill="#666666"/>
<path d="M38.7366 18.7812V18.8765H37.4788V18.7812H37.5825C37.6318 18.7868 37.6815 18.7783 37.7274 18.7564C37.7734 18.7346 37.8142 18.7 37.8466 18.6556C37.893 18.5315 37.911 18.3952 37.8986 18.2603V16.0125C37.8986 15.9302 37.8986 15.863 37.8941 15.8121C37.8924 15.7692 37.887 15.7265 37.8781 15.6849C37.8722 15.6558 37.8603 15.629 37.8434 15.6069C37.8252 15.5853 37.8044 15.567 37.7817 15.5527C37.7208 15.5125 37.6522 15.4912 37.5825 15.491H37.4788V15.3962H38.7366V15.491H38.6292C38.5802 15.4856 38.5307 15.4942 38.4851 15.5161C38.4395 15.5381 38.3989 15.5728 38.367 15.6172C38.319 15.7407 38.3005 15.8774 38.3135 16.0125V18.2603C38.3135 18.342 38.3135 18.4092 38.3181 18.4606C38.3197 18.503 38.3251 18.5451 38.3341 18.5863C38.3404 18.6153 38.3526 18.6421 38.3697 18.6642C38.3883 18.6859 38.4096 18.7041 38.4328 18.7184C38.4929 18.759 38.5609 18.7803 38.6301 18.7801L38.7366 18.7812Z" fill="#666666"/>
<path d="M39.5619 16.9536C39.6356 16.8185 39.7333 16.704 39.8481 16.6181C39.9628 16.5322 40.092 16.4768 40.2266 16.456C40.2962 16.4552 40.3653 16.4697 40.4304 16.4987C40.4944 16.53 40.5503 16.5806 40.5926 16.6455C40.6435 16.7263 40.6801 16.8184 40.7004 16.9162C40.729 17.0548 40.7423 17.1971 40.7397 17.3397V18.3437C40.7383 18.4236 40.7429 18.5035 40.7534 18.5825C40.759 18.6308 40.7758 18.6763 40.8019 18.714C40.8264 18.7436 40.8586 18.7627 40.8933 18.7682C40.9419 18.7769 40.9911 18.7809 41.0404 18.7801V18.8722H40.0622V18.7801H40.1033C40.1546 18.7821 40.2058 18.7752 40.2554 18.7595C40.2894 18.748 40.3188 18.7227 40.3386 18.688C40.3596 18.6474 40.372 18.6013 40.3747 18.5538C40.3802 18.4828 40.3826 18.4116 40.382 18.3404V17.3825C40.3912 17.2228 40.367 17.0628 40.3116 16.9168C40.2876 16.8686 40.2526 16.8295 40.2107 16.8038C40.1687 16.7782 40.1215 16.767 40.0745 16.7717C39.9739 16.781 39.876 16.8156 39.7875 16.8731C39.699 16.9306 39.6218 17.0097 39.5609 17.1052V18.3453C39.5552 18.4443 39.5633 18.5439 39.5847 18.6399C39.5937 18.6636 39.6049 18.6861 39.6181 18.707C39.6312 18.7267 39.6484 18.7421 39.6679 18.7519C39.6939 18.7648 39.7215 18.7729 39.7496 18.7758C39.7939 18.7819 39.8385 18.7848 39.8831 18.7844V18.8765H38.9035V18.7844H38.9492C38.9923 18.7859 39.0354 18.7789 39.0766 18.7639C39.109 18.7509 39.1368 18.7256 39.1557 18.6918C39.1771 18.6509 39.1907 18.6049 39.1954 18.557C39.2035 18.487 39.2071 18.4164 39.2064 18.3458V17.4718C39.211 17.2997 39.2052 17.1274 39.189 16.9563C39.1849 16.9093 39.1679 16.8652 39.1406 16.8307C39.1145 16.8068 39.0821 16.7949 39.0492 16.7971C38.9994 16.7995 38.9503 16.8125 38.9044 16.8356L38.8701 16.743L39.4682 16.456H39.5596L39.5619 16.9536Z" fill="#666666"/>
<path d="M42.4831 16.4559V17.2568H42.4105C42.3894 17.1484 42.3588 17.043 42.3191 16.9422C42.29 16.8681 42.25 16.8008 42.2008 16.7435C42.1594 16.6944 42.1091 16.6573 42.0537 16.6352C41.9945 16.6136 41.9328 16.6032 41.8709 16.6043C41.8242 16.6038 41.7778 16.6132 41.7338 16.6319C41.6956 16.6478 41.6597 16.671 41.6278 16.7007C41.5993 16.7274 41.5757 16.7608 41.5584 16.7987C41.5424 16.8328 41.5339 16.8712 41.5337 16.9102C41.5334 16.9555 41.5393 17.0005 41.5511 17.0435C41.5667 17.092 41.5915 17.1355 41.6237 17.1707C41.6717 17.2245 41.7247 17.2716 41.7818 17.311C41.8499 17.3597 41.9422 17.4193 42.0559 17.4853C42.1496 17.5375 42.2396 17.5983 42.3251 17.6673C42.3903 17.7184 42.4499 17.7788 42.5028 17.8471C42.5453 17.9008 42.5785 17.9639 42.6006 18.0328C42.6199 18.0967 42.6296 18.1642 42.6294 18.2321C42.6306 18.3341 42.611 18.435 42.5722 18.5261C42.5351 18.612 42.4838 18.6882 42.4215 18.7503C42.3588 18.8128 42.2872 18.8614 42.2099 18.8938C42.1322 18.9287 42.0499 18.947 41.9669 18.9479C41.9015 18.9475 41.8363 18.9416 41.7718 18.9301C41.6973 18.9167 41.6237 18.8969 41.5515 18.871C41.5269 18.8635 41.5058 18.8564 41.4862 18.8521C41.469 18.8481 41.4516 18.8461 41.4341 18.8461C41.4172 18.8472 41.4009 18.854 41.3871 18.8657C41.3733 18.8774 41.3627 18.8935 41.3564 18.9122H41.2847V18.0734H41.3596C41.3775 18.183 41.4082 18.2891 41.451 18.3886C41.4876 18.4726 41.5356 18.5489 41.5931 18.6144C41.6455 18.6725 41.7065 18.7186 41.7731 18.7503C41.8375 18.781 41.9062 18.7968 41.9755 18.7969C42.0223 18.7978 42.0688 18.7882 42.1126 18.7687C42.1518 18.751 42.1882 18.7254 42.22 18.6929C42.2496 18.6618 42.2736 18.6238 42.2903 18.5813C42.307 18.538 42.3154 18.4909 42.315 18.4433C42.3156 18.3894 42.3082 18.3359 42.2931 18.2851C42.2754 18.2328 42.2481 18.1858 42.2131 18.1476C42.164 18.0943 42.1102 18.0473 42.0527 18.0073C41.9847 17.9591 41.8974 17.9034 41.7905 17.84C41.7011 17.7896 41.6145 17.7322 41.5314 17.6684C41.4739 17.6229 41.4219 17.5682 41.377 17.5059C41.3413 17.4568 41.3153 17.3989 41.3007 17.3364C41.287 17.2707 41.2804 17.2032 41.2811 17.1355C41.2806 17.0425 41.2961 16.9504 41.3267 16.8648C41.3548 16.7831 41.397 16.7094 41.4506 16.6482C41.5057 16.586 41.5704 16.5369 41.6411 16.5036C41.7184 16.4671 41.8009 16.4487 41.8842 16.4494C41.9198 16.4507 41.9553 16.456 41.9902 16.4651C42.0358 16.4754 42.077 16.4868 42.1213 16.4987L42.241 16.5323C42.2652 16.5401 42.29 16.545 42.315 16.5469C42.3321 16.5496 42.3494 16.5462 42.3648 16.5371C42.3846 16.5145 42.4001 16.4872 42.4105 16.457L42.4831 16.4559Z" fill="#666666"/>
<path d="M44.6663 16.5253V17.95C44.662 18.117 44.667 18.2841 44.6814 18.4503C44.6866 18.4979 44.7049 18.542 44.7335 18.5759C44.7568 18.5999 44.7867 18.6128 44.8176 18.6122C44.8702 18.6088 44.9217 18.5932 44.9693 18.5662L44.999 18.6566L44.405 18.9463H44.3077V18.4487C44.1944 18.6072 44.0631 18.7462 43.9175 18.8619C43.8302 18.9177 43.7325 18.9467 43.6333 18.9463C43.5297 18.9492 43.4284 18.9098 43.3464 18.8348C43.2647 18.7597 43.2048 18.6564 43.175 18.5391C43.1386 18.3732 43.1232 18.2019 43.1293 18.0306V16.9823C43.1307 16.9193 43.1251 16.8563 43.1129 16.7949C43.1046 16.7534 43.0862 16.7158 43.0599 16.6866C43.0327 16.6581 42.9993 16.6394 42.9635 16.6325C42.916 16.624 42.868 16.62 42.82 16.6206H42.7944V16.5253H43.4889V18.0989C43.4867 18.1913 43.4958 18.2836 43.5159 18.3729C43.5291 18.433 43.554 18.4886 43.5885 18.5353C43.6165 18.5726 43.653 18.5995 43.6936 18.6128C43.734 18.6256 43.7756 18.632 43.8174 18.6317C43.8507 18.6312 43.8839 18.6259 43.9161 18.616C43.9555 18.6041 43.9933 18.5859 44.0285 18.5619C44.0743 18.5315 44.1178 18.4967 44.1587 18.4579C44.2123 18.4077 44.2632 18.3534 44.3109 18.2954V16.9633C44.312 16.9076 44.3074 16.852 44.2972 16.7976C44.2903 16.7576 44.2735 16.721 44.2487 16.6926C44.221 16.6646 44.1874 16.6459 44.1514 16.6384C44.099 16.6255 44.0455 16.6192 43.992 16.6195V16.5242L44.6663 16.5253Z" fill="#666666"/>
<path d="M45.7249 16.4559V16.9845C45.8924 16.6321 46.0629 16.4559 46.2362 16.4559C46.3081 16.4553 46.3777 16.4859 46.4317 16.542C46.4564 16.5673 46.4765 16.5982 46.4907 16.633C46.5042 16.6669 46.5111 16.7039 46.5108 16.7413C46.5119 16.8045 46.4919 16.8656 46.455 16.9114C46.4375 16.9336 46.4163 16.9512 46.3927 16.963C46.3691 16.9749 46.3436 16.9807 46.318 16.9801C46.2892 16.9787 46.2611 16.969 46.2362 16.952C46.2056 16.9341 46.1759 16.9135 46.1448 16.8919C46.1137 16.8702 46.0881 16.8507 46.0635 16.8317C46.047 16.8167 46.0274 16.807 46.0068 16.8036C45.9839 16.8057 45.9622 16.8163 45.9447 16.8339C45.9178 16.8572 45.8936 16.8847 45.8729 16.9157C45.8454 16.9557 45.8199 16.9977 45.7966 17.0413C45.7711 17.09 45.7459 17.1437 45.7213 17.2038V18.3241C45.7209 18.3877 45.7245 18.4513 45.7322 18.5142C45.7375 18.566 45.7532 18.6156 45.7779 18.6588C45.8048 18.7005 45.8413 18.7322 45.883 18.7498C45.9419 18.773 46.0037 18.7838 46.0658 18.7817V18.8738H45.056V18.7817C45.1083 18.7828 45.1605 18.7776 45.2118 18.766C45.2485 18.7582 45.282 18.7366 45.3073 18.7043C45.3322 18.666 45.3479 18.6206 45.353 18.5727C45.3629 18.4973 45.3673 18.421 45.3663 18.3447V17.4366C45.3711 17.2739 45.366 17.1111 45.3512 16.9493C45.348 16.9068 45.3312 16.8675 45.3043 16.8394C45.2773 16.8112 45.2422 16.7965 45.2063 16.7982C45.1542 16.7999 45.1028 16.8129 45.0546 16.8366L45.0327 16.7446L45.6331 16.4565L45.7249 16.4559Z" fill="#666666"/>
<path d="M47.7448 18.5375C47.6248 18.6582 47.4966 18.7668 47.3614 18.8624C47.2837 18.9057 47.1988 18.9277 47.1129 18.9268C47.0481 18.9276 46.9839 18.9127 46.9242 18.8829C46.8674 18.8553 46.8165 18.8134 46.7748 18.76C46.7317 18.7047 46.6982 18.64 46.6761 18.5694C46.6515 18.4898 46.6394 18.4056 46.6404 18.3209C46.6398 18.2583 46.6474 18.196 46.6628 18.1362C46.6781 18.0781 46.7011 18.0233 46.7309 17.9738C46.7641 17.9196 46.8031 17.8708 46.847 17.8286C46.8989 17.7779 46.9544 17.7324 47.0128 17.6927C47.2471 17.5433 47.4916 17.4177 47.7438 17.3175V17.2254C47.7456 17.126 47.7373 17.0268 47.7192 16.9297C47.7065 16.8617 47.6821 16.7975 47.6474 16.7413C47.6179 16.6952 47.5775 16.6606 47.5314 16.6417C47.4814 16.6208 47.4286 16.6106 47.3756 16.6113C47.3334 16.6107 47.2914 16.6192 47.2518 16.6362C47.2175 16.6505 47.1856 16.672 47.1576 16.6996C47.1322 16.725 47.1116 16.7565 47.0973 16.7922C47.0842 16.8262 47.0774 16.8631 47.0772 16.9005L47.0818 17.0494C47.0854 17.1155 47.0672 17.1808 47.0311 17.2314C47.014 17.2527 46.9933 17.2695 46.9703 17.2806C46.9472 17.2918 46.9225 17.2969 46.8977 17.2958C46.8731 17.2967 46.8486 17.2911 46.826 17.2795C46.8034 17.2679 46.7833 17.2505 46.767 17.2286C46.7309 17.178 46.7125 17.1129 46.7154 17.0467C46.7161 16.9717 46.7331 16.8983 46.7647 16.8333C46.8003 16.7596 46.8485 16.6956 46.9064 16.6454C46.9751 16.5844 47.0525 16.5384 47.1348 16.5095C47.2348 16.4726 47.339 16.4544 47.4437 16.4554C47.5766 16.4512 47.709 16.4784 47.8329 16.5355C47.8851 16.5606 47.9325 16.5977 47.9723 16.6447C48.0122 16.6918 48.0437 16.7478 48.065 16.8095C48.0986 16.9567 48.1119 17.1094 48.1043 17.2617V18.0599C48.1043 18.1725 48.1043 18.2635 48.1071 18.3306C48.1098 18.3978 48.1121 18.4465 48.1148 18.4714C48.1172 18.5087 48.1297 18.544 48.1505 18.5721C48.1661 18.5889 48.1865 18.5982 48.2076 18.5981C48.2216 18.5982 48.2354 18.5957 48.2487 18.5905C48.2652 18.5831 48.2806 18.5727 48.2944 18.5597C48.3156 18.5402 48.3357 18.5192 48.3547 18.4969C48.378 18.4703 48.4077 18.4357 48.4461 18.3929V18.5364C48.2828 18.7934 48.1284 18.9218 47.9828 18.9214C47.951 18.9227 47.9193 18.9156 47.89 18.9006C47.8608 18.8857 47.8347 18.8632 47.8137 18.8348C47.7631 18.7475 47.74 18.6418 47.7484 18.5364M47.7484 18.3696V17.475C47.6388 17.5259 47.5492 17.5698 47.4788 17.6055C47.4267 17.6313 47.3759 17.6605 47.3267 17.6933C47.2317 17.7507 47.1482 17.8316 47.0818 17.9304C47.0332 18.0088 47.0075 18.1039 47.0087 18.2012C47.008 18.2592 47.0164 18.3168 47.0334 18.3712C47.0489 18.4211 47.0718 18.4673 47.101 18.5077C47.128 18.5452 47.1613 18.5757 47.1988 18.597C47.2353 18.6183 47.2755 18.6294 47.3162 18.6295C47.4796 18.5999 47.631 18.5101 47.7489 18.3728" fill="#666666"/>
<path d="M49.1679 16.9536C49.2417 16.8185 49.3394 16.704 49.4541 16.6181C49.5689 16.5322 49.6981 16.4768 49.8327 16.456C49.9023 16.4552 49.9714 16.4697 50.0365 16.4987C50.1005 16.53 50.1564 16.5806 50.1987 16.6455C50.2496 16.7263 50.2862 16.8184 50.3065 16.9162C50.3351 17.0548 50.3483 17.1971 50.3458 17.3397V18.3437C50.3444 18.4236 50.349 18.5035 50.3595 18.5825C50.3651 18.6308 50.3818 18.6763 50.408 18.714C50.4325 18.7436 50.4646 18.7627 50.4993 18.7682C50.548 18.7769 50.5972 18.7809 50.6465 18.7801V18.8722H49.6682V18.7801H49.7094C49.7607 18.7821 49.8119 18.7752 49.8615 18.7595C49.8956 18.7481 49.9252 18.7228 49.9451 18.688C49.9662 18.6474 49.9786 18.6013 49.9812 18.5538C49.9867 18.4828 49.9891 18.4116 49.9885 18.3404V17.3825C49.9977 17.2228 49.9735 17.0628 49.9182 16.9168C49.8941 16.8686 49.8591 16.8295 49.8172 16.8038C49.7753 16.7782 49.7281 16.767 49.681 16.7717C49.5804 16.781 49.4826 16.8156 49.3941 16.8731C49.3055 16.9306 49.2283 17.0097 49.1675 17.1052V18.3453C49.1618 18.4443 49.1698 18.5439 49.1912 18.6399C49.2002 18.6636 49.2114 18.6861 49.2246 18.707C49.2378 18.7267 49.2549 18.7421 49.2744 18.7519C49.3005 18.7648 49.328 18.7729 49.3562 18.7758C49.4005 18.7819 49.445 18.7848 49.4896 18.7844V18.8765H48.5096V18.7844H48.5552C48.5984 18.7859 48.6415 18.7789 48.6827 18.7639C48.7151 18.7509 48.7429 18.7256 48.7618 18.6918C48.7832 18.6509 48.7968 18.6049 48.8015 18.557C48.8096 18.487 48.8132 18.4164 48.8125 18.3458V17.4718C48.8171 17.2997 48.8113 17.1274 48.7951 16.9563C48.791 16.9093 48.774 16.8652 48.7467 16.8307C48.7206 16.8068 48.6882 16.7949 48.6553 16.7971C48.6055 16.7995 48.5564 16.8125 48.5105 16.8356L48.478 16.743L49.0761 16.456H49.1675L49.1679 16.9536Z" fill="#666666"/>
<path d="M52.4917 17.983C52.4674 18.127 52.4258 18.2661 52.3683 18.3962C52.3181 18.5087 52.253 18.6109 52.1755 18.6989C52.1051 18.7786 52.0226 18.8418 51.9324 18.8852C51.8453 18.9268 51.7522 18.9481 51.6583 18.948C51.5474 18.9484 51.4379 18.9184 51.3385 18.8602C51.2356 18.8004 51.1444 18.7157 51.0707 18.6117C50.9907 18.4949 50.9288 18.3621 50.888 18.2196C50.8398 18.0533 50.8163 17.8783 50.8185 17.7025C50.8167 17.5295 50.8426 17.3577 50.8948 17.1962C50.9413 17.0506 51.0107 16.9168 51.0995 16.802C51.1845 16.6939 51.2868 16.6072 51.4006 16.5469C51.5156 16.4861 51.6402 16.455 51.7661 16.456C51.8573 16.4556 51.9479 16.4739 52.0338 16.5101C52.1101 16.5403 52.1816 16.5853 52.2454 16.6433C52.2999 16.6937 52.3464 16.7553 52.3825 16.8253C52.4145 16.8843 52.432 16.9527 52.4332 17.0229C52.434 17.052 52.4298 17.081 52.421 17.1082C52.4121 17.1354 52.3987 17.1601 52.3815 17.181C52.3612 17.2022 52.3376 17.2185 52.3119 17.2288C52.2863 17.2391 52.2592 17.2433 52.2321 17.2411C52.2013 17.2414 52.1706 17.237 52.1408 17.2281C52.1133 17.22 52.0878 17.204 52.0667 17.1816C52.0441 17.1559 52.0267 17.1244 52.016 17.0895C52.0013 17.0405 51.9925 16.9893 51.99 16.9374C51.9881 16.8505 51.9574 16.768 51.9045 16.7078C51.8448 16.6517 51.7695 16.6239 51.6935 16.6298C51.6144 16.6276 51.5364 16.651 51.4678 16.6975C51.4023 16.7441 51.3461 16.8071 51.3033 16.8821C51.2569 16.9649 51.2227 17.0565 51.2023 17.1529C51.1798 17.2608 51.1686 17.3715 51.1689 17.4826C51.1693 17.6166 51.1847 17.7499 51.2146 17.879C51.242 17.9997 51.2853 18.1145 51.343 18.2191C51.3952 18.3149 51.4643 18.3962 51.5454 18.4574C51.6262 18.5181 51.7202 18.5495 51.8159 18.5478C51.8744 18.5483 51.9326 18.5394 51.9891 18.5213C52.0461 18.5016 52.0997 18.4699 52.1472 18.4276C52.2038 18.3756 52.2533 18.3135 52.2938 18.2435C52.3483 18.1508 52.3942 18.0515 52.4309 17.9473L52.4917 17.983Z" fill="#666666"/>
<path d="M53.109 17.4106C53.1071 17.57 53.127 17.7287 53.1679 17.8806C53.2017 18.0087 53.2553 18.1283 53.326 18.2331C53.3872 18.3261 53.4653 18.4016 53.5544 18.4541C53.6397 18.504 53.7335 18.53 53.8286 18.5299C53.9501 18.5331 54.069 18.4887 54.1671 18.4037C54.28 18.2887 54.3636 18.1387 54.4084 17.9705L54.476 18.0247C54.4593 18.1421 54.4286 18.256 54.3846 18.3631C54.3409 18.4726 54.2829 18.5733 54.2128 18.6615C54.1426 18.7488 54.0596 18.8203 53.9679 18.8727C53.8733 18.9271 53.7693 18.9547 53.6641 18.9533C53.5485 18.9543 53.4341 18.9249 53.3292 18.8672C53.2244 18.8099 53.131 18.727 53.0551 18.6241C52.9726 18.5115 52.9089 18.3814 52.8673 18.2407C52.8197 18.0789 52.7963 17.9085 52.7983 17.7371C52.7957 17.5532 52.8195 17.3701 52.8686 17.1956C52.9106 17.0482 52.9764 16.9119 53.0624 16.7944C53.1425 16.6864 53.2421 16.6013 53.3539 16.5453C53.4679 16.488 53.5906 16.4591 53.7144 16.4602C53.8187 16.4592 53.9222 16.4822 54.0191 16.5279C54.1101 16.572 54.1923 16.6382 54.2603 16.7223C54.3299 16.8092 54.3839 16.9118 54.4193 17.0239C54.4592 17.1497 54.4789 17.2833 54.4774 17.4176L53.109 17.4106ZM53.109 17.2617H54.0282C54.0287 17.1534 54.0132 17.0458 53.9826 16.9438C53.9487 16.8512 53.8924 16.7726 53.8208 16.718C53.7547 16.665 53.6768 16.6364 53.5969 16.6357C53.5379 16.6357 53.4796 16.6502 53.4256 16.6785C53.3693 16.7072 53.3185 16.749 53.2762 16.8014C53.2297 16.8586 53.192 16.9249 53.1647 16.9974C53.1337 17.0813 53.115 17.1709 53.1094 17.2622" fill="#666666"/>
<path d="M55.7899 18.8764V18.7811H55.9009C55.9515 18.7865 56.0023 18.7763 56.0485 18.7517C56.0948 18.727 56.1349 18.6887 56.165 18.6403C56.2062 18.5203 56.2219 18.3902 56.2107 18.2613V16.0124C56.2254 15.8722 56.2042 15.7299 56.1499 15.6041C56.1176 15.5648 56.0783 15.5344 56.035 15.5148C55.9917 15.4953 55.9453 15.4871 55.8991 15.4909H55.7881V15.3962H56.9838C57.3239 15.3768 57.6639 15.437 57.9844 15.5732C58.2171 15.6945 58.4107 15.9015 58.5363 16.1635C58.6798 16.4524 58.7526 16.783 58.7465 17.1182C58.7489 17.3599 58.7132 17.6001 58.6414 17.8265C58.5741 18.0372 58.4676 18.2273 58.3298 18.3826C58.1814 18.545 58.0058 18.6687 57.8144 18.7454C57.5847 18.8377 57.3433 18.8822 57.1007 18.877L55.7899 18.8764ZM56.6279 18.6246C56.7789 18.6683 56.9335 18.6924 57.0889 18.6967C57.2476 18.6983 57.405 18.6615 57.5512 18.5884C57.6917 18.5172 57.8175 18.4113 57.9204 18.2775C58.0281 18.1356 58.1113 17.97 58.1653 17.7902C58.2828 17.3711 58.2828 16.9183 58.1653 16.4992C58.1121 16.3191 58.029 16.1534 57.9209 16.0119C57.8162 15.8781 57.6884 15.7726 57.5462 15.7027C57.3953 15.6296 57.2336 15.5927 57.0706 15.5944C57.0012 15.5946 56.9318 15.601 56.8632 15.6133C56.7891 15.6263 56.711 15.6453 56.6269 15.6675L56.6279 18.6246Z" fill="#666666"/>
<path d="M59.3892 17.4106C59.3873 17.57 59.4073 17.7287 59.4482 17.8806C59.482 18.0087 59.5356 18.1283 59.6063 18.2331C59.6675 18.3261 59.7456 18.4016 59.8347 18.4541C59.92 18.504 60.0138 18.53 60.1089 18.5299C60.2303 18.5331 60.3493 18.4887 60.4474 18.4037C60.5603 18.2887 60.6438 18.1387 60.6887 17.9705L60.7563 18.0247C60.7396 18.1421 60.7088 18.256 60.6649 18.3631C60.6211 18.4726 60.5632 18.5733 60.4931 18.6615C60.4229 18.7488 60.3399 18.8203 60.2482 18.8727C60.1536 18.9271 60.0496 18.9547 59.9444 18.9533C59.8287 18.9543 59.7144 18.9249 59.6095 18.8672C59.5047 18.8099 59.4113 18.727 59.3353 18.6241C59.2529 18.5115 59.1892 18.3814 59.1475 18.2407C59.1 18.0789 59.0766 17.9085 59.0786 17.7371C59.076 17.5532 59.0998 17.3701 59.1489 17.1956C59.1908 17.0482 59.2566 16.9119 59.3426 16.7944C59.4228 16.6864 59.5224 16.6013 59.6341 16.5453C59.7481 16.488 59.8708 16.4591 59.9946 16.4602C60.099 16.4592 60.2025 16.4822 60.2994 16.5279C60.3904 16.572 60.4726 16.6382 60.5406 16.7223C60.6101 16.8092 60.6642 16.9118 60.6996 17.0239C60.7395 17.1497 60.7592 17.2833 60.7576 17.4176L59.3892 17.4106ZM59.3892 17.2617H60.3071C60.3076 17.1534 60.2921 17.0458 60.2615 16.9438C60.2276 16.8512 60.1713 16.7726 60.0997 16.718C60.0336 16.665 59.9557 16.6364 59.8758 16.6357C59.8168 16.6357 59.7585 16.6502 59.7045 16.6785C59.6483 16.7072 59.5974 16.749 59.5551 16.8014C59.5086 16.8586 59.4709 16.9249 59.4436 16.9974C59.4126 17.0813 59.3939 17.1709 59.3883 17.2622" fill="#666666"/>
<path d="M60.9221 16.5252H61.8551V16.6205H61.7948C61.7482 16.6165 61.7021 16.6337 61.6659 16.6687C61.6508 16.6854 61.6389 16.7059 61.631 16.7286C61.6231 16.7513 61.6194 16.7758 61.6203 16.8003C61.6234 16.8739 61.639 16.9461 61.6659 17.0126L62.1279 18.3122L62.5912 16.9649C62.6177 16.8965 62.6344 16.8233 62.6405 16.7483C62.6422 16.727 62.6379 16.7055 62.6283 16.6874C62.6188 16.6692 62.6044 16.6552 62.5875 16.6476C62.5312 16.6273 62.4722 16.6188 62.4134 16.6227V16.5274H63.0627V16.6227C63.0239 16.6257 62.9856 16.635 62.9489 16.6503C62.9206 16.663 62.8952 16.6832 62.8744 16.7093C62.8527 16.7374 62.8344 16.7689 62.8201 16.803C62.8041 16.8398 62.7881 16.8831 62.7707 16.933L62.0657 18.9452H61.9771L61.2689 16.9617C61.251 16.9093 61.2304 16.8583 61.2072 16.809C61.1896 16.7718 61.1667 16.7384 61.1396 16.7104C61.1134 16.6843 61.0834 16.6643 61.051 16.6514C61.009 16.6355 60.9659 16.6246 60.9221 16.6189V16.5252Z" fill="#666666"/>
<path d="M63.575 17.4106C63.5731 17.57 63.593 17.7287 63.634 17.8806C63.6678 18.0087 63.7214 18.1283 63.7921 18.2331C63.8533 18.3262 63.9313 18.4017 64.0205 18.4541C64.1057 18.504 64.1996 18.53 64.2946 18.5299C64.4161 18.5331 64.5351 18.4887 64.6332 18.4037C64.7461 18.2887 64.8296 18.1387 64.8744 17.9705L64.9421 18.0247C64.9254 18.1421 64.8946 18.256 64.8507 18.3631C64.8069 18.4726 64.749 18.5733 64.6789 18.6615C64.6086 18.7488 64.5257 18.8203 64.434 18.8727C64.3394 18.9271 64.2353 18.9547 64.1302 18.9533C64.0145 18.9543 63.9002 18.9249 63.7953 18.8672C63.6905 18.8099 63.5971 18.727 63.5211 18.6241C63.4387 18.5115 63.3749 18.3814 63.3333 18.2407C63.2857 18.0789 63.2624 17.9085 63.2643 17.7371C63.2618 17.5532 63.2856 17.3701 63.3347 17.1956C63.3766 17.0482 63.4424 16.9119 63.5284 16.7944C63.6086 16.6864 63.7082 16.6013 63.8199 16.5453C63.9339 16.488 64.0566 16.4591 64.1804 16.4602C64.2847 16.4592 64.3882 16.4822 64.4852 16.5279C64.5762 16.572 64.6584 16.6382 64.7264 16.7223C64.7959 16.8092 64.85 16.9118 64.8854 17.0239C64.9253 17.1497 64.945 17.2833 64.9434 17.4176L63.575 17.4106ZM63.575 17.2617H64.4929C64.4934 17.1534 64.4779 17.0458 64.4472 16.9438C64.4134 16.8512 64.3571 16.7726 64.2855 16.718C64.2193 16.665 64.1415 16.6364 64.0616 16.6357C64.0026 16.6357 63.9443 16.6502 63.8903 16.6785C63.834 16.7072 63.7832 16.749 63.7409 16.8014C63.6944 16.8586 63.6567 16.9249 63.6294 16.9974C63.5984 17.0813 63.5797 17.1709 63.5741 17.2622" fill="#666666"/>
<path d="M65.8924 15.2262V18.3447C65.8924 18.4194 65.8924 18.4812 65.8983 18.5277C65.9015 18.5662 65.9081 18.6041 65.918 18.6409C65.9246 18.6655 65.936 18.688 65.9513 18.7064C65.9665 18.7229 65.9836 18.7367 66.002 18.7476C66.0689 18.7782 66.1407 18.7906 66.2122 18.7839V18.8759H65.2399V18.7839C65.2915 18.7856 65.3431 18.7796 65.3934 18.766C65.4296 18.7569 65.4619 18.7331 65.4848 18.6989C65.5078 18.6594 65.5215 18.6134 65.5246 18.5657C65.5318 18.4923 65.535 18.4185 65.5342 18.3447V16.209C65.5342 16.0758 65.5342 15.9686 65.5314 15.8841C65.5306 15.8286 65.5262 15.7732 65.5182 15.7184C65.512 15.6724 65.4947 15.6295 65.4684 15.5949C65.4445 15.5717 65.4142 15.5597 65.3834 15.5614C65.3342 15.5641 65.286 15.5781 65.2413 15.6025L65.2034 15.5132L65.795 15.2251L65.8924 15.2262Z" fill="#666666"/>
<path d="M67.4118 16.4559C67.5447 16.4542 67.6762 16.4873 67.797 16.5529C67.9112 16.6161 68.014 16.7051 68.0995 16.815C68.1848 16.9267 68.2517 17.0564 68.2969 17.1973C68.3437 17.3442 68.3676 17.5 68.3672 17.657C68.3675 17.8233 68.3429 17.9883 68.2946 18.1444C68.2483 18.2948 68.1796 18.4342 68.0917 18.5559C68.0058 18.675 67.9004 18.7723 67.7819 18.8418C67.6597 18.9143 67.5247 18.9515 67.3881 18.9501C67.2557 18.9522 67.1247 18.917 67.0061 18.8472C66.8931 18.782 66.7926 18.6898 66.711 18.5765C66.6272 18.4614 66.5623 18.3288 66.5195 18.1855C66.4746 18.039 66.4517 17.8843 66.4519 17.7285C66.4519 17.5693 66.4754 17.4113 66.5214 17.2617C66.5659 17.1134 66.6321 16.9756 66.7169 16.8545C66.8011 16.7365 66.904 16.6394 67.0198 16.5686C67.1411 16.4958 67.2754 16.4587 67.4114 16.4603M67.3447 16.6271C67.2816 16.6269 67.2193 16.643 67.1619 16.6742C67.1002 16.7094 67.0468 16.7622 67.0066 16.828C66.956 16.9108 66.9188 17.0041 66.8969 17.103C66.8672 17.2364 66.8533 17.374 66.8558 17.5119C66.8556 17.6726 66.871 17.8329 66.9015 17.9895C66.9275 18.1295 66.9698 18.2645 67.0271 18.3907C67.0756 18.4982 67.1429 18.5922 67.2245 18.6664C67.2989 18.7337 67.39 18.7699 67.4836 18.7693C67.5495 18.7699 67.6148 18.7539 67.675 18.7221C67.7366 18.6874 67.7894 18.6339 67.8281 18.5673C67.8767 18.4821 67.9112 18.3867 67.9295 18.2862C67.9564 18.1459 67.9688 18.0023 67.9665 17.8584C67.9674 17.6979 67.9536 17.5378 67.9254 17.3808C67.902 17.2442 67.8616 17.1125 67.8057 16.9899C67.7582 16.885 67.6915 16.7939 67.6106 16.7234C67.5339 16.6593 67.4422 16.6254 67.3483 16.6265" fill="#666666"/>
<path d="M68.5173 16.7586L69.1286 16.4662H69.2104V17.0153C69.2561 16.9232 69.3081 16.8355 69.3657 16.7532C69.4104 16.6877 69.4624 16.6296 69.5201 16.5805C69.5686 16.5388 69.6225 16.5066 69.6796 16.4852C69.7332 16.4656 69.7889 16.4557 69.845 16.4559C69.9522 16.4542 70.058 16.4859 70.1516 16.548C70.2437 16.6105 70.3233 16.6958 70.385 16.7982C70.452 16.9103 70.5025 17.0349 70.5344 17.1669C70.5705 17.3129 70.5884 17.4643 70.5874 17.6164C70.5882 17.7888 70.5666 17.9602 70.5235 18.1249C70.4844 18.2785 70.4225 18.4226 70.3407 18.5505C70.2639 18.6697 70.1668 18.7684 70.0556 18.8402C69.9405 18.9134 69.8116 18.9507 69.681 18.9485C69.6369 18.9488 69.5928 18.9462 69.5489 18.9409C69.5094 18.936 69.4704 18.9257 69.4329 18.91C69.3945 18.8939 69.3577 18.8728 69.3232 18.8472C69.2821 18.8156 69.2437 18.7793 69.2085 18.7389V19.4559C69.2085 19.5404 69.2085 19.6064 69.2136 19.6546C69.2155 19.6932 69.2218 19.7312 69.2323 19.7678C69.2391 19.7911 69.2511 19.8119 69.267 19.8279C69.2829 19.8431 69.3002 19.856 69.3186 19.8663C69.3907 19.8983 69.4677 19.9115 69.5444 19.9048V19.9996H68.5054V19.9053H68.5597C68.6141 19.906 68.6682 19.8965 68.7201 19.8772C68.7442 19.8681 68.7662 19.8527 68.7845 19.8322C68.8029 19.8117 68.8171 19.7865 68.8261 19.7586C68.8478 19.6547 68.8558 19.5475 68.8499 19.4407V17.2205C68.8506 17.1482 68.8482 17.0759 68.8426 17.0039C68.8398 16.9608 68.8305 16.9186 68.8151 16.8794C68.8044 16.8527 68.7852 16.8321 68.7617 16.822C68.7336 16.812 68.7042 16.8074 68.6749 16.8085C68.6295 16.812 68.5849 16.8243 68.5428 16.8447L68.5173 16.7586ZM69.2104 17.1669V18.0442C69.2061 18.1696 69.2127 18.2951 69.23 18.4189C69.2404 18.4697 69.2583 18.518 69.283 18.5613C69.3089 18.6077 69.3416 18.6482 69.3794 18.681C69.4201 18.7163 69.4651 18.7441 69.5128 18.7633C69.5653 18.7845 69.6205 18.7949 69.6759 18.7942C69.7547 18.7955 69.8323 18.7708 69.8998 18.7227C69.9673 18.6741 70.0242 18.6073 70.0657 18.5277C70.1131 18.4363 70.1474 18.3362 70.1671 18.2315C70.1911 18.1087 70.2028 17.9829 70.2018 17.8568C70.2024 17.7193 70.1897 17.5821 70.1639 17.448C70.142 17.3339 70.1058 17.2244 70.0565 17.1231C70.015 17.0373 69.958 16.9634 69.8898 16.9065C69.826 16.8548 69.7504 16.8275 69.6732 16.8285C69.6379 16.8283 69.6028 16.8353 69.5695 16.8491C69.5325 16.8648 69.4974 16.8859 69.4649 16.9119C69.4244 16.9448 69.386 16.981 69.3497 17.0202C69.3086 17.063 69.262 17.1122 69.2099 17.1691" fill="#666666"/>
<path d="M71.4656 16.9563C71.61 16.7852 71.6941 16.6855 71.721 16.6606C71.7841 16.5977 71.855 16.5468 71.9312 16.5095C72.0021 16.4748 72.0779 16.4565 72.1546 16.4554C72.2704 16.452 72.3835 16.4966 72.4744 16.5815C72.5689 16.6777 72.6323 16.8098 72.6535 16.9552C72.759 16.7967 72.8863 16.6605 73.03 16.5523C73.1269 16.4891 73.2356 16.4558 73.3462 16.4554C73.4158 16.4545 73.4849 16.469 73.55 16.4982C73.615 16.5285 73.6722 16.5785 73.7158 16.6433C73.7679 16.7237 73.8056 16.8158 73.8268 16.914C73.8568 17.0507 73.8706 17.1915 73.868 17.3326V18.3442C73.868 18.4205 73.868 18.4877 73.8739 18.5429C73.8755 18.5912 73.887 18.6384 73.9073 18.6804C73.9281 18.718 73.9595 18.7456 73.9959 18.7584C74.0516 18.7768 74.1094 18.7849 74.1672 18.7822V18.8748H73.1886V18.7822H73.2297C73.29 18.7853 73.3502 18.7714 73.4051 18.7416C73.4288 18.7258 73.4495 18.7043 73.4659 18.6786C73.4823 18.6529 73.4942 18.6235 73.5006 18.5922C73.5082 18.5096 73.5108 18.4266 73.5084 18.3436V17.3332C73.5099 17.2397 73.5026 17.1463 73.4865 17.0548C73.476 16.9919 73.4542 16.9324 73.4225 16.8805C73.3967 16.8388 73.3611 16.8071 73.3201 16.7895C73.2747 16.7713 73.2269 16.7625 73.179 16.7635C73.1408 16.7635 73.1028 16.7687 73.0657 16.7792C73.0251 16.7912 72.9861 16.8094 72.9496 16.8333C72.9038 16.8631 72.8599 16.8969 72.8185 16.9346C72.7644 16.9833 72.7128 17.0357 72.664 17.0916L72.6686 18.3447C72.6686 18.4281 72.6686 18.4941 72.6732 18.5407C72.674 18.5776 72.6794 18.6141 72.6892 18.649C72.6956 18.6705 72.7072 18.6894 72.7225 18.7032C72.7371 18.7151 72.7553 18.7288 72.7769 18.7443C72.8032 18.7601 72.8317 18.77 72.861 18.7736C72.9043 18.78 72.948 18.7829 72.9916 18.7822V18.8748H71.9901V18.7822C72.0515 18.7842 72.1128 18.7778 72.1729 18.7633C72.2111 18.7547 72.2454 18.7298 72.2693 18.6934C72.2916 18.6534 72.3044 18.607 72.3063 18.5591C72.3109 18.505 72.3127 18.4303 72.3127 18.3425V17.3332C72.3141 17.2405 72.3055 17.1481 72.2871 17.0581C72.2745 16.9938 72.2505 16.9334 72.2167 16.881C72.1886 16.8384 72.1516 16.8052 72.1094 16.7846C72.0658 16.7641 72.0192 16.7542 71.9723 16.7554C71.9221 16.7558 71.8723 16.7666 71.8252 16.7873C71.775 16.8086 71.7267 16.8354 71.6808 16.8675C71.6369 16.8984 71.5952 16.9335 71.5561 16.9725C71.5233 17.0069 71.4927 17.0442 71.4647 17.0841V18.3447C71.4641 18.4083 71.4662 18.4719 71.4711 18.5353C71.4739 18.5738 71.4805 18.6118 71.4907 18.6485C71.497 18.6725 71.5085 18.6942 71.5241 18.7113C71.5385 18.7254 71.5538 18.7383 71.5698 18.7497C71.6396 18.7773 71.7134 18.7884 71.7868 18.7822V18.8748H70.8072V18.7822C70.8608 18.7839 70.9143 18.7779 70.9667 18.7644C71.0026 18.7557 71.0349 18.7325 71.0581 18.6988C71.0816 18.6596 71.0959 18.6136 71.0992 18.5656C71.1064 18.4921 71.1096 18.4181 71.1088 18.3442V17.4453C71.1088 17.2931 71.1088 17.1745 71.1024 17.0879C71.1007 17.022 71.0928 16.9566 71.0786 16.8929C71.0762 16.8764 71.0709 16.8607 71.063 16.8468C71.0552 16.8329 71.0449 16.8211 71.0329 16.8122C71.008 16.8009 70.9815 16.7956 70.9548 16.7965C70.905 16.7989 70.8559 16.8119 70.81 16.835L70.7729 16.7429L71.371 16.4559H71.4624L71.4656 16.9563Z" fill="#666666"/>
<path d="M74.6597 17.4106C74.6579 17.57 74.6778 17.7287 74.7187 17.8806C74.7525 18.0087 74.8061 18.1283 74.8768 18.2331C74.938 18.3261 75.0161 18.4016 75.1052 18.4541C75.1905 18.504 75.2843 18.53 75.3794 18.5299C75.5008 18.5331 75.6198 18.4887 75.7179 18.4037C75.8308 18.2887 75.9144 18.1387 75.9592 17.9705L76.0268 18.0247C76.0101 18.1421 75.9794 18.256 75.9354 18.3631C75.8916 18.4726 75.8337 18.5733 75.7636 18.6615C75.6934 18.7488 75.6104 18.8203 75.5187 18.8727C75.4241 18.9271 75.3201 18.9547 75.2149 18.9533C75.0992 18.9543 74.9849 18.9249 74.88 18.8672C74.7752 18.8099 74.6818 18.727 74.6058 18.6241C74.5234 18.5115 74.4597 18.3814 74.4181 18.2407C74.3705 18.0789 74.3471 17.9085 74.3491 17.7371C74.3465 17.5532 74.3703 17.3701 74.4194 17.1956C74.4613 17.0482 74.5271 16.9119 74.6131 16.7944C74.6933 16.6864 74.7929 16.6013 74.9046 16.5453C75.0186 16.488 75.1413 16.4591 75.2651 16.4602C75.3695 16.4592 75.473 16.4822 75.5699 16.5279C75.6609 16.572 75.7431 16.6382 75.8111 16.7223C75.8807 16.8092 75.9347 16.9118 75.9701 17.0239C76.01 17.1497 76.0297 17.2833 76.0282 17.4176L74.6597 17.4106ZM74.6597 17.2617H75.5777C75.5781 17.1534 75.5626 17.0458 75.532 16.9438C75.4981 16.8512 75.4418 16.7726 75.3702 16.718C75.3041 16.665 75.2262 16.6364 75.1463 16.6357C75.0873 16.6357 75.029 16.6502 74.975 16.6785C74.9188 16.7072 74.8679 16.749 74.8256 16.8014C74.7791 16.8586 74.7414 16.9249 74.7141 16.9974C74.6831 17.0813 74.6644 17.1709 74.6588 17.2622" fill="#666666"/>
<path d="M76.8733 16.9536C76.947 16.8185 77.0447 16.704 77.1595 16.6181C77.2742 16.5322 77.4034 16.4768 77.538 16.456C77.6076 16.4552 77.6767 16.4697 77.7418 16.4987C77.8058 16.53 77.8617 16.5806 77.904 16.6455C77.9549 16.7263 77.9915 16.8183 78.0118 16.9162C78.0404 17.0548 78.0537 17.1971 78.0511 17.3397V18.3437C78.0497 18.4236 78.0543 18.5035 78.0648 18.5825C78.0704 18.6308 78.0871 18.6763 78.1133 18.714C78.1378 18.7436 78.17 18.7627 78.2047 18.7682C78.2533 18.7769 78.3025 18.7809 78.3518 18.7801V18.8722H77.3708V18.7801H77.4119C77.4632 18.7821 77.5145 18.7752 77.5641 18.7595C77.598 18.748 77.6275 18.7227 77.6472 18.688C77.6683 18.6474 77.6807 18.6013 77.6833 18.5538C77.6888 18.4828 77.6913 18.4116 77.6906 18.3404V17.3825C77.6998 17.2228 77.6756 17.0628 77.6203 16.9168C77.5962 16.8686 77.5613 16.8295 77.5193 16.8038C77.4774 16.7782 77.4302 16.767 77.3831 16.7717C77.2825 16.781 77.1847 16.8156 77.0962 16.8731C77.0077 16.9306 76.9304 17.0097 76.8696 17.1052V18.3453C76.8639 18.4443 76.8719 18.5439 76.8934 18.6399C76.9024 18.6636 76.9135 18.6861 76.9267 18.707C76.94 18.7267 76.9573 18.7422 76.977 18.7519C77.003 18.7648 77.0306 18.7729 77.0588 18.7758C77.103 18.7819 77.1476 18.7848 77.1922 18.7844V18.8765H76.2112V18.7844H76.2569C76.3001 18.7859 76.3431 18.7789 76.3844 18.7639C76.4168 18.7509 76.4446 18.7256 76.4634 18.6918C76.4849 18.6509 76.4984 18.6049 76.5032 18.557C76.5112 18.487 76.5149 18.4164 76.5141 18.3458V17.4718C76.5187 17.2997 76.5129 17.1274 76.4968 16.9563C76.4926 16.9093 76.4756 16.8652 76.4483 16.8307C76.4223 16.8068 76.3898 16.7949 76.357 16.7971C76.3071 16.7995 76.2581 16.8125 76.2121 16.8356L76.1797 16.743L76.7778 16.456H76.8691L76.8733 16.9536Z" fill="#666666"/>
<path d="M79.0879 15.7531V16.5258H79.5512V16.7056H79.0879V18.2299C79.0868 18.2943 79.0918 18.3586 79.103 18.4216C79.1102 18.4639 79.1242 18.5041 79.1441 18.5402C79.159 18.5674 79.1805 18.5887 79.2058 18.6014C79.231 18.6127 79.2578 18.6182 79.2848 18.6176C79.334 18.6162 79.3818 18.5974 79.4219 18.5635C79.4688 18.5251 79.5049 18.471 79.5256 18.4081H79.6106C79.5872 18.4861 79.5556 18.5603 79.5165 18.629C79.4829 18.6882 79.4425 18.7414 79.3963 18.7871C79.3552 18.8272 79.3089 18.8593 79.2592 18.8819C79.2122 18.9028 79.1624 18.9136 79.1121 18.9138C79.078 18.9139 79.044 18.9084 79.0111 18.8976C78.9776 18.8869 78.9456 18.8704 78.9161 18.8488C78.886 18.8275 78.8587 18.8013 78.8348 18.7709C78.8096 18.7394 78.7897 18.7027 78.7758 18.6626C78.74 18.5409 78.7244 18.4122 78.7301 18.2835V16.705H78.4163V16.62C78.5065 16.5745 78.589 16.5099 78.6598 16.4294C78.7458 16.3355 78.8206 16.228 78.8818 16.1099C78.8978 16.0774 78.9179 16.0319 78.9412 15.9724C78.9645 15.9128 78.9919 15.8402 79.0203 15.7558L79.0879 15.7531Z" fill="#666666"/>
<path d="M82.0833 18.7812V18.8765H80.8254V18.7812H80.9292C80.9783 18.7868 81.0279 18.7782 81.0737 18.7564C81.1195 18.7345 81.1601 18.6999 81.1923 18.6556C81.2391 18.5317 81.2571 18.3952 81.2444 18.2603V16.0125C81.2444 15.9302 81.2444 15.863 81.2408 15.8121C81.239 15.7691 81.2335 15.7265 81.2243 15.6849C81.2183 15.656 81.2066 15.6293 81.19 15.6069C81.1716 15.5857 81.1509 15.5675 81.1284 15.5527C81.0675 15.5125 80.9989 15.4912 80.9292 15.491H80.8254V15.3962H82.0833V15.491H81.9768C81.9278 15.4855 81.8785 15.4941 81.8329 15.5161C81.7873 15.538 81.7469 15.5727 81.715 15.6172C81.6667 15.7405 81.6482 15.8774 81.6616 16.0125V18.2603C81.6616 18.342 81.6616 18.4092 81.6652 18.4606C81.667 18.5031 81.6725 18.5452 81.6817 18.5863C81.6877 18.6152 81.6996 18.642 81.7164 18.6642C81.7353 18.6855 81.7565 18.7037 81.7794 18.7184C81.8396 18.7589 81.9076 18.7802 81.9768 18.7801L82.0833 18.7812Z" fill="#666666"/>
<path d="M82.9089 16.9536C82.9826 16.8185 83.0803 16.704 83.1951 16.6181C83.3099 16.5322 83.439 16.4768 83.5737 16.456C83.6432 16.4552 83.7123 16.4697 83.7774 16.4987C83.8414 16.53 83.8973 16.5806 83.9396 16.6455C83.9905 16.7263 84.0271 16.8184 84.0475 16.9162C84.0761 17.0548 84.0893 17.1971 84.0867 17.3397V18.3437C84.0853 18.4236 84.0899 18.5035 84.1005 18.5825C84.106 18.6308 84.1228 18.6763 84.1489 18.714C84.1734 18.7436 84.2056 18.7627 84.2403 18.7682C84.289 18.7769 84.3382 18.7809 84.3874 18.7801V18.8722H83.4064V18.7801H83.4475C83.4988 18.7821 83.5501 18.7752 83.5997 18.7595C83.6336 18.748 83.6631 18.7227 83.6828 18.688C83.7039 18.6474 83.7163 18.6013 83.7189 18.5538C83.7244 18.4828 83.7269 18.4116 83.7263 18.3404V17.3825C83.7354 17.2228 83.7113 17.0628 83.6559 16.9168C83.6319 16.8686 83.5969 16.8295 83.5549 16.8038C83.513 16.7782 83.4658 16.767 83.4188 16.7717C83.3181 16.781 83.2203 16.8156 83.1318 16.8731C83.0433 16.9306 82.966 17.0097 82.9052 17.1052V18.3453C82.8995 18.4443 82.9075 18.5439 82.929 18.6399C82.938 18.6636 82.9492 18.6861 82.9623 18.707C82.9755 18.7267 82.9926 18.7421 83.0121 18.7519C83.0382 18.7648 83.0658 18.7729 83.0939 18.7758C83.1382 18.7819 83.1827 18.7848 83.2273 18.7844V18.8765H82.2464V18.7844H82.2921C82.3352 18.7859 82.3783 18.7789 82.4195 18.7639C82.4519 18.7509 82.4797 18.7256 82.4986 18.6918C82.52 18.6509 82.5336 18.6049 82.5383 18.557C82.5464 18.487 82.55 18.4164 82.5493 18.3458V17.4718C82.5539 17.2997 82.5481 17.1274 82.5319 16.9563C82.5278 16.9093 82.5108 16.8652 82.4835 16.8307C82.4574 16.8068 82.425 16.7949 82.3921 16.7971C82.3423 16.7995 82.2932 16.8125 82.2473 16.8356L82.2148 16.743L82.8129 16.456H82.9043L82.9089 16.9536Z" fill="#666666"/>
<path d="M85.8294 16.4559V17.2568H85.7577C85.7366 17.1484 85.7059 17.043 85.6663 16.9422C85.6372 16.8681 85.5971 16.8008 85.548 16.7435C85.5066 16.6944 85.4563 16.6573 85.4009 16.6352C85.3417 16.6136 85.28 16.6032 85.2181 16.6043C85.1714 16.6038 85.125 16.6132 85.081 16.6319C85.0428 16.6478 85.0069 16.671 84.975 16.7007C84.9465 16.7274 84.9229 16.7608 84.9056 16.7987C84.8896 16.8328 84.8811 16.8712 84.8809 16.9102C84.8806 16.9555 84.8865 17.0005 84.8983 17.0435C84.9139 17.092 84.9387 17.1355 84.9709 17.1707C85.0189 17.2245 85.0719 17.2716 85.129 17.311C85.1971 17.3597 85.2894 17.4193 85.4031 17.4853C85.4968 17.5375 85.5867 17.5983 85.6723 17.6673C85.7375 17.7184 85.7971 17.7788 85.85 17.8471C85.8925 17.9008 85.9257 17.9639 85.9478 18.0328C85.9671 18.0967 85.9768 18.1642 85.9765 18.2321C85.9778 18.3341 85.9582 18.435 85.9194 18.5261C85.8823 18.612 85.831 18.6882 85.7687 18.7503C85.706 18.8128 85.6344 18.8615 85.5571 18.8938C85.4794 18.9287 85.3971 18.947 85.314 18.9479C85.2487 18.9476 85.1835 18.9416 85.119 18.9301C85.0444 18.9167 84.9709 18.8969 84.8987 18.871C84.8741 18.8635 84.853 18.8564 84.8334 18.8521C84.8162 18.8481 84.7988 18.8461 84.7813 18.8461C84.7644 18.8472 84.7481 18.854 84.7343 18.8657C84.7205 18.8774 84.7099 18.8935 84.7036 18.9122H84.6319V18.0734H84.7036C84.7215 18.183 84.7522 18.2891 84.795 18.3886C84.8315 18.4726 84.8796 18.5489 84.9371 18.6144C84.9895 18.6725 85.0505 18.7186 85.1171 18.7503C85.1815 18.781 85.2502 18.7968 85.3195 18.7969C85.3663 18.7978 85.4128 18.7882 85.4566 18.7687C85.4958 18.751 85.5322 18.7254 85.564 18.6929C85.5936 18.6618 85.6176 18.6238 85.6343 18.5813C85.6509 18.538 85.6593 18.4909 85.659 18.4432C85.6596 18.3894 85.6521 18.3359 85.6371 18.2851C85.6194 18.2328 85.5921 18.1858 85.5571 18.1476C85.508 18.0943 85.4542 18.0473 85.3967 18.0073C85.3287 17.9591 85.2414 17.9034 85.1345 17.84C85.045 17.7896 84.9585 17.7322 84.8754 17.6684C84.8179 17.6229 84.7659 17.5682 84.721 17.5059C84.6853 17.4568 84.6593 17.3989 84.6447 17.3364C84.631 17.2707 84.6244 17.2032 84.625 17.1355C84.6246 17.0425 84.6401 16.9504 84.6707 16.8648C84.6988 16.7831 84.741 16.7094 84.7946 16.6482C84.8497 16.586 84.9144 16.5369 84.9851 16.5036C85.0624 16.4671 85.1449 16.4487 85.2281 16.4494C85.2638 16.4507 85.2993 16.456 85.3341 16.4651C85.3798 16.4754 85.421 16.4868 85.4653 16.4987L85.585 16.5323C85.6092 16.5401 85.634 16.545 85.659 16.5469C85.6782 16.5485 85.6974 16.5424 85.7134 16.5296C85.7329 16.5066 85.7484 16.4794 85.7591 16.4494L85.8294 16.4559Z" fill="#666666"/>
<path d="M86.8491 15.7531V16.5258H87.3124V16.7056H86.8491V18.2299C86.848 18.2943 86.8531 18.3586 86.8642 18.4216C86.8714 18.4639 86.8854 18.5041 86.9053 18.5402C86.9203 18.5674 86.9417 18.5887 86.967 18.6014C86.9922 18.6127 87.0191 18.6182 87.046 18.6176C87.0953 18.6162 87.143 18.5974 87.1831 18.5635C87.2301 18.5252 87.2662 18.471 87.2868 18.4081H87.3718C87.3484 18.4861 87.3168 18.5603 87.2777 18.629C87.2442 18.6882 87.2037 18.7414 87.1575 18.7871C87.1164 18.8272 87.0702 18.8593 87.0205 18.8819C86.9734 18.9028 86.9236 18.9136 86.8733 18.9138C86.8392 18.9139 86.8052 18.9084 86.7724 18.8976C86.7389 18.8869 86.7069 18.8704 86.6773 18.8488C86.6473 18.8275 86.6199 18.8013 86.596 18.7709C86.5709 18.7394 86.5509 18.7027 86.5371 18.6626C86.5012 18.5409 86.4857 18.4122 86.4914 18.2835V16.705H86.1775V16.62C86.2678 16.5745 86.3503 16.5099 86.421 16.4294C86.5071 16.3355 86.5818 16.228 86.6431 16.1099C86.6591 16.0774 86.6792 16.0319 86.7025 15.9724C86.7258 15.9128 86.7532 15.8402 86.7815 15.7558L86.8491 15.7531Z" fill="#666666"/>
<path d="M88.1898 16.4559V18.3447C88.1892 18.4058 88.1913 18.4669 88.1962 18.5277C88.1991 18.5666 88.2057 18.6049 88.2158 18.642C88.2219 18.6669 88.2334 18.6895 88.2492 18.7075C88.2632 18.7229 88.2785 18.7365 88.2949 18.7481C88.3568 18.7774 88.4235 18.7898 88.49 18.7844V18.8765H87.5264V18.7844C87.5665 18.7846 87.6066 18.7821 87.6465 18.7768C87.6727 18.7732 87.6982 18.7644 87.7219 18.7508C87.74 18.7402 87.7556 18.7246 87.7676 18.7054C87.7798 18.6848 87.7902 18.6629 87.7987 18.6398C87.8242 18.5447 87.8345 18.4449 87.8293 18.3453V17.4388C87.8293 17.2893 87.8293 17.1724 87.8229 17.0863C87.8212 17.0214 87.8137 16.957 87.8005 16.894C87.798 16.8776 87.7927 16.8619 87.7848 16.848C87.777 16.8341 87.7667 16.8223 87.7548 16.8133C87.7297 16.8014 87.7028 16.7959 87.6758 16.7971C87.6252 16.7996 87.5754 16.8126 87.5287 16.8355L87.498 16.7429L88.0957 16.4559H88.1898ZM88.0098 15.2262C88.0391 15.226 88.0682 15.233 88.0952 15.2468C88.121 15.2594 88.1446 15.2778 88.1647 15.3009C88.1839 15.3249 88.1994 15.3528 88.2103 15.3832C88.2218 15.4153 88.2278 15.4499 88.2278 15.4848C88.2278 15.5196 88.2218 15.5542 88.2103 15.5863C88.1991 15.6169 88.1836 15.645 88.1647 15.6697C88.145 15.6933 88.1213 15.7117 88.0952 15.7238C88.055 15.7441 88.0106 15.7497 87.9677 15.7401C87.9247 15.7304 87.8852 15.7059 87.854 15.6697C87.8346 15.6454 87.8191 15.6171 87.8083 15.5863C87.7968 15.5542 87.7909 15.5196 87.7909 15.4848C87.7909 15.4499 87.7968 15.4153 87.8083 15.3832C87.8192 15.3528 87.8347 15.3249 87.854 15.3009C87.896 15.2524 87.9524 15.2252 88.0111 15.2251" fill="#666666"/>
<path d="M89.3137 15.7531V16.5258H89.777V16.7056H89.3137V18.2299C89.3126 18.2943 89.3177 18.3586 89.3288 18.4216C89.336 18.4639 89.35 18.5041 89.3699 18.5402C89.3849 18.5674 89.4063 18.5887 89.4316 18.6014C89.4568 18.6127 89.4837 18.6182 89.5106 18.6176C89.5599 18.6162 89.6076 18.5974 89.6477 18.5635C89.6946 18.5251 89.7308 18.471 89.7514 18.4081H89.8364C89.813 18.4861 89.7814 18.5603 89.7423 18.629C89.7088 18.6882 89.6683 18.7414 89.6221 18.7871C89.5811 18.8272 89.5348 18.8593 89.4851 18.8819C89.438 18.9028 89.3882 18.9136 89.3379 18.9138C89.3038 18.9139 89.2698 18.9084 89.237 18.8976C89.2035 18.8869 89.1715 18.8704 89.1419 18.8488C89.1119 18.8275 89.0845 18.8013 89.0606 18.7709C89.0355 18.7394 89.0155 18.7027 89.0017 18.6626C88.9658 18.5409 88.9503 18.4122 88.956 18.2835V16.705H88.6421V16.62C88.7324 16.5745 88.8149 16.5099 88.8856 16.4294C88.9717 16.3355 89.0464 16.228 89.1077 16.1099C89.1237 16.0774 89.1438 16.0319 89.1671 15.9724C89.1904 15.9128 89.2178 15.8402 89.2461 15.7558L89.3137 15.7531Z" fill="#666666"/>
<path d="M91.7088 16.5252V17.9499C91.7045 18.1169 91.7095 18.2841 91.7239 18.4503C91.7297 18.4978 91.7482 18.5419 91.7769 18.5759C91.7999 18.5996 91.8295 18.6125 91.86 18.6122C91.9125 18.6096 91.9641 18.5947 92.0117 18.5683L92.0423 18.6587L91.4484 18.9484H91.3506V18.4508C91.2376 18.6092 91.1065 18.7482 90.9613 18.864C90.874 18.9198 90.7763 18.9489 90.6771 18.9484C90.5733 18.9511 90.4717 18.9118 90.3893 18.8369C90.3079 18.7615 90.2481 18.6583 90.2179 18.5412C90.1819 18.3753 90.1666 18.204 90.1722 18.0328V16.9822C90.1736 16.9192 90.168 16.8562 90.1558 16.7949C90.1475 16.7534 90.1291 16.7157 90.1028 16.6866C90.0755 16.6582 90.0422 16.6395 90.0064 16.6324C89.9586 16.6239 89.9103 16.6199 89.862 16.6205H89.8364V16.5252H90.5309V18.0988C90.5288 18.1912 90.538 18.2835 90.5583 18.3728C90.5716 18.4329 90.5965 18.4885 90.631 18.5353C90.659 18.5726 90.6955 18.5994 90.7361 18.6127C90.7764 18.6256 90.8181 18.632 90.8599 18.6317C90.8932 18.6311 90.9263 18.6259 90.9586 18.616C90.9979 18.6039 91.0357 18.5857 91.071 18.5618C91.1162 18.5319 91.1593 18.4977 91.1998 18.4595C91.2533 18.4092 91.3039 18.355 91.3515 18.297V16.9649C91.3524 16.9093 91.3479 16.8537 91.3382 16.7992C91.3314 16.7592 91.3145 16.7226 91.2898 16.6942C91.2619 16.6663 91.2284 16.6476 91.1925 16.64C91.14 16.6271 91.0866 16.6208 91.033 16.6211V16.5257L91.7088 16.5252Z" fill="#666666"/>
<path d="M92.7633 15.7531V16.5258H93.2266V16.7056H92.7633V18.2299C92.7622 18.2943 92.7672 18.3586 92.7784 18.4216C92.7856 18.4639 92.7996 18.5041 92.8195 18.5402C92.8344 18.5674 92.8559 18.5887 92.8812 18.6014C92.9064 18.6127 92.9333 18.6182 92.9602 18.6176C93.0095 18.6162 93.0572 18.5974 93.0973 18.5635C93.1442 18.5251 93.1803 18.471 93.201 18.4081H93.286C93.2626 18.4861 93.231 18.5603 93.1919 18.629C93.1583 18.6882 93.1179 18.7414 93.0717 18.7871C93.0306 18.8272 92.9843 18.8593 92.9346 18.8819C92.8876 18.9028 92.8378 18.9136 92.7875 18.9138C92.7534 18.9139 92.7194 18.9084 92.6865 18.8976C92.6531 18.8869 92.621 18.8704 92.5915 18.8488C92.5614 18.8275 92.5341 18.8013 92.5102 18.7709C92.4851 18.7394 92.4651 18.7027 92.4512 18.6626C92.4154 18.5409 92.3999 18.4122 92.4056 18.2835V16.705H92.0898V16.62C92.1801 16.5745 92.2626 16.5099 92.3334 16.4294C92.4194 16.3355 92.4941 16.228 92.5554 16.1099C92.5714 16.0774 92.5915 16.0319 92.6148 15.9724C92.6381 15.9128 92.6655 15.8402 92.6939 15.7558L92.7633 15.7531Z" fill="#666666"/>
<path d="M93.7533 17.4106C93.7512 17.57 93.7708 17.7287 93.8114 17.8806C93.8452 18.0089 93.8991 18.1285 93.9704 18.2331C94.0315 18.3262 94.1096 18.4017 94.1988 18.4541C94.2841 18.5038 94.3779 18.5298 94.4729 18.5299C94.5947 18.533 94.714 18.4887 94.8124 18.4037C94.9249 18.2885 95.0083 18.1385 95.0532 17.9705L95.1208 18.0247C95.1042 18.1421 95.0735 18.2561 95.0294 18.3631C94.9852 18.4722 94.9272 18.5728 94.8577 18.6615C94.7871 18.7488 94.7038 18.8203 94.6118 18.8727C94.5175 18.9271 94.4138 18.9548 94.3089 18.9533C94.193 18.9544 94.0783 18.925 93.9731 18.8672C93.8683 18.8099 93.7749 18.727 93.699 18.6241C93.6168 18.5114 93.5534 18.3814 93.5121 18.2407C93.4642 18.079 93.4408 17.9085 93.4431 17.7371C93.4402 17.5532 93.464 17.37 93.5135 17.1956C93.5554 17.0484 93.6208 16.9122 93.7063 16.7944C93.7866 16.6862 93.8866 16.601 93.9987 16.5453C94.1124 16.488 94.2348 16.459 94.3583 16.4602C94.4626 16.4591 94.5661 16.4821 94.663 16.5279C94.7542 16.5722 94.8367 16.6384 94.9052 16.7223C94.9744 16.8093 95.0282 16.9119 95.0633 17.024C95.1035 17.1496 95.1232 17.2832 95.1213 17.4176L93.7533 17.4106ZM93.7533 17.2617H94.6703C94.6715 17.1533 94.656 17.0456 94.6246 16.9438C94.5908 16.8512 94.5345 16.7726 94.4629 16.718C94.3969 16.665 94.3192 16.6363 94.2395 16.6357C94.1803 16.6357 94.1218 16.6503 94.0677 16.6785C94.0116 16.707 93.9611 16.7489 93.9192 16.8014C93.8724 16.8585 93.8344 16.9248 93.8068 16.9974C93.7758 17.0812 93.7573 17.1709 93.7524 17.2622" fill="#666666"/>
<path d="M1.13013 0.461975H9.14865L2.09829 9.70116L8.83157 19.5024H1.13013V0.461975Z" fill="#0057A6"/>
<path d="M1.13013 0.461975H9.14865L2.09829 9.70116L8.83157 19.5024H1.13013V0.461975Z" stroke="#EDEEEF" stroke-width="0.7" stroke-miterlimit="10"/>
<path d="M14.3189 3.33688C14.3189 3.93664 14.1688 4.52293 13.8877 5.02161C13.6065 5.52029 13.2069 5.90897 12.7394 6.13849C12.2719 6.368 11.7574 6.42806 11.2611 6.31105C10.7648 6.19404 10.3089 5.90523 9.95106 5.48114C9.59323 5.05704 9.34955 4.51671 9.25082 3.92848C9.1521 3.34024 9.20277 2.73052 9.39642 2.17642C9.59008 1.62231 9.91802 1.14871 10.3388 0.815501C10.7596 0.482293 11.2542 0.304443 11.7603 0.304443C12.0963 0.304443 12.429 0.38288 12.7394 0.535274C13.0498 0.687668 13.3319 0.911036 13.5695 1.19262C13.8071 1.47421 13.9956 1.8085 14.1241 2.17642C14.2527 2.54433 14.3189 2.93865 14.3189 3.33688Z" fill="#D9001A"/>
<path d="M11.761 6.36823C13.1739 6.36823 14.3192 5.01081 14.3192 3.33634C14.3192 1.66187 13.1739 0.304443 11.761 0.304443C10.3482 0.304443 9.20288 1.66187 9.20288 3.33634C9.20288 5.01081 10.3482 6.36823 11.761 6.36823Z" stroke="#EDEEEF" stroke-width="0.7" stroke-miterlimit="10"/>
<path d="M14.2127 8.75574H9.65332V19.5009H14.2127V8.75574Z" fill="#0057A6"/>
<path d="M14.2127 8.75574H9.65332V19.5009H14.2127V8.75574Z" stroke="#EDEEEF" stroke-width="0.7" stroke-miterlimit="10"/>
<path d="M23.3265 7.46855C22.5407 3.528 18.8092 0.50694 15.2993 0.315247V7.46855H23.3265Z" fill="#0057A6"/>
<path d="M23.3265 7.46855C22.5407 3.528 18.8092 0.50694 15.2993 0.315247V7.46855H23.3265Z" stroke="#EDEEEF" stroke-width="0.7" stroke-miterlimit="10"/>
<path d="M15.2993 12.3058V19.4905C18.8174 19.2983 22.5608 16.2593 23.3329 12.3058H15.2993Z" fill="#0057A6"/>
<path d="M15.2993 12.3058V19.4905C18.8174 19.2983 22.5608 16.2593 23.3329 12.3058H15.2993Z" stroke="#EDEEEF" stroke-width="0.7" stroke-miterlimit="10"/>
<path d="M23.3328 7.93913C23.3265 7.91422 15.2563 7.84436 15.2992 7.76801L23.3328 7.62451V7.93913Z" fill="#76B984"/>
<path d="M23.3328 8.56724L15.657 8.42374V8.39612L23.3328 8.25262V8.56724Z" fill="#76B984"/>
<path d="M23.3347 9.19535L16.0166 9.05185V9.02424L23.3347 8.88074V9.19535Z" fill="#76B984"/>
<path d="M23.3347 10.9981L16.0166 10.8546V10.8281L23.3347 10.6835V10.9981Z" fill="#76B984"/>
<path d="M23.3329 9.82353L16.373 9.68003V9.65241L23.3329 9.50891V9.82353Z" fill="#76B984"/>
<path d="M23.3329 10.4268L16.373 10.2833V10.2557L23.3329 10.1122V10.4268Z" fill="#76B984"/>
<path d="M23.3328 11.552L15.657 11.4085V11.3809L23.3328 11.2374V11.552Z" fill="#76B984"/>
<path d="M23.3328 12.1488C23.3265 12.1239 15.2563 12.054 15.2992 11.9777L23.3328 11.8342V12.1488Z" fill="#76B984"/>
<path d="M31.6282 11.395V8.41079H36.0418V0.541077H34.4646V2.85006H27.1757V0.541077H25.6639V8.41079H30.0903V11.395H25.4514V13.3742H36.2671V11.395H31.6282ZM27.1757 4.47512H34.4655V6.9027H27.1757V4.47512Z" fill="#666666"/>
<path d="M49.8657 0.587646V3.58218H48.6116V5.41572H49.8657V8.28083L40.6821 8.25267V13.6407L51.4037 13.6715V0.587646H49.8657ZM49.831 11.9593H42.2497V9.67846H49.831V11.9593Z" fill="#666666"/>
<path d="M48.129 1.48435H45.3246V0.119751H43.6277V1.48435H40.6816V2.97512H41.6996C41.503 3.51071 41.422 4.09587 41.4638 4.67784C41.5056 5.25981 41.669 5.82029 41.9392 6.30877C42.2094 6.79725 42.5779 7.19837 43.0115 7.47596C43.4451 7.75356 43.9301 7.89891 44.4229 7.89891C44.9157 7.89891 45.4008 7.75356 45.8344 7.47596C46.268 7.19837 46.6365 6.79725 46.9067 6.30877C47.1769 5.82029 47.3402 5.25981 47.382 4.67784C47.4239 4.09587 47.3428 3.51071 47.1463 2.97512H48.129V1.48435ZM44.4232 6.38931C44.1153 6.38985 43.8142 6.2821 43.558 6.0797C43.3018 5.8773 43.102 5.58936 42.984 5.25234C42.866 4.91531 42.835 4.54436 42.8949 4.18644C42.9549 3.82852 43.1031 3.49973 43.3208 3.2417C43.5385 2.98367 43.8159 2.80801 44.1179 2.73695C44.4199 2.66589 44.7329 2.70264 45.0173 2.84253C45.3017 2.98242 45.5446 3.21917 45.7154 3.5228C45.8861 3.82643 45.9771 4.18329 45.9766 4.54819C45.9766 5.03649 45.8129 5.50478 45.5216 5.85006C45.2303 6.19534 44.8352 6.38931 44.4232 6.38931Z" fill="#666666"/>
<path d="M60.735 0.733276V5.61333C60.7349 6.72986 60.3606 7.80064 59.6946 8.59024C59.0285 9.37985 58.1251 9.82366 57.1831 9.82409H55.8179V8.09614H57.1543C57.7027 8.096 58.2286 7.83774 58.6164 7.37814C59.0042 6.91855 59.2221 6.29525 59.2222 5.64528V2.22946H55.8179V0.733276H60.735Z" fill="#666666"/>
<path d="M63.5449 0.733826H61.981V13.4684H63.5449V0.733826Z" fill="#666666"/>
<path d="M66.3013 0.733826H64.7373V13.4684H66.3013V0.733826Z" fill="#666666"/>
<path d="M65.0818 5.11139H63.2263V6.71425H65.0818V5.11139Z" fill="#666666"/>
<path d="M75.5794 0.734375V2.22081H72.0284V0.734375H70.5864V6.38445H77.0373V0.734375H75.5794ZM75.5794 4.84387H72.0284V3.79118H75.5803L75.5794 4.84387Z" fill="#666666"/>
<path d="M81.8343 2.4726V4.04296H80.7213V11.0495H72.1861V11.7394H80.7213V13.4673H70.5869V9.82409H79.156V9.10172H70.5869V7.49994H79.2638V0.733276H80.7218V2.4726H81.8343Z" fill="#666666"/>
<path d="M90.9564 3.69915C90.9563 3.1088 90.8319 2.5278 90.5946 2.0088C90.3572 1.4898 90.0143 1.04921 89.5969 0.726942C89.1796 0.404678 88.701 0.210931 88.2045 0.16326C87.708 0.115588 87.2094 0.215498 86.7537 0.453936C86.298 0.692374 85.8998 1.0618 85.595 1.52875C85.2902 1.99569 85.0886 2.54538 85.0083 3.12802C84.9281 3.71066 84.9717 4.30782 85.1354 4.86539C85.2991 5.42297 85.5776 5.92332 85.9456 6.32112H84.9688V8.03391H87.6407V10.6093H88.9401V8.03337H91.0957V6.32112H89.9804C90.2882 5.98875 90.534 5.58383 90.7021 5.13232C90.8702 4.6808 90.9568 4.19265 90.9564 3.69915ZM88.0048 1.70207C88.4302 1.71259 88.8347 1.92287 89.1293 2.2867C89.424 2.65052 89.5847 3.13811 89.5761 3.64229C89.5849 3.89332 89.5509 4.14387 89.4759 4.37889C89.401 4.6139 89.2867 4.82853 89.1399 5.00985C88.9932 5.19118 88.8171 5.33547 88.6221 5.43403C88.4271 5.5326 88.2173 5.58341 88.0053 5.58341C87.7933 5.58341 87.5835 5.5326 87.3885 5.43403C87.1935 5.33547 87.0173 5.19118 86.8706 5.00985C86.7239 4.82853 86.6096 4.6139 86.5346 4.37889C86.4597 4.14387 86.4256 3.89332 86.4345 3.64229C86.4259 3.13829 86.5865 2.65086 86.8809 2.28707C87.1753 1.92328 87.5796 1.71288 88.0048 1.70207Z" fill="#666666"/>
<path d="M94.9298 0.52478V13.4668H84.9695V9.88689H86.5147V11.9289H93.5258V10.0602H91.2993V8.25262H93.5258V0.52478H94.9298Z" fill="#666666"/>
</g>
</svg>
