<svg width="18" height="18" viewBox="0 0 18 18" fill="none" xmlns="http://www.w3.org/2000/svg">
<path d="M5.31001 12.075C5.04001 12.075 4.77002 12.0075 4.52252 11.865C4.02002 11.58 3.72002 11.07 3.72002 10.5V7.82249C3.72002 7.62749 3.59251 7.29751 3.43501 7.11001L1.545 5.12249C1.1925 4.77749 0.9375 4.17749 0.9375 3.71999V2.5575C0.9375 1.65 1.62748 0.929993 2.51248 0.929993H9.1875C10.0575 0.929993 10.7625 1.635 10.7625 2.505V3.61501C10.7625 4.20001 10.425 4.845 10.095 5.175L7.89752 7.11749C7.72502 7.25999 7.58249 7.60501 7.58249 7.86001V10.035C7.58249 10.5525 7.26751 11.13 6.85501 11.3775L6.16498 11.8275C5.89498 11.9925 5.60251 12.075 5.31001 12.075ZM2.51248 2.0625C2.25748 2.0625 2.0625 2.28001 2.0625 2.56501V3.7275C2.0625 3.855 2.19001 4.17751 2.35501 4.34251L4.28998 6.375C4.57498 6.7275 4.85248 7.30499 4.85248 7.82249V10.5C4.85248 10.725 4.99502 10.8375 5.08502 10.8825C5.20502 10.95 5.39999 10.9875 5.56499 10.8825L6.26248 10.4325C6.35248 10.38 6.45749 10.17 6.45749 10.0425V7.86749C6.45749 7.27499 6.74999 6.62249 7.16249 6.26999L9.32249 4.3575C9.45749 4.2225 9.63748 3.85501 9.63748 3.61501V2.505C9.63748 2.2575 9.435 2.05499 9.1875 2.05499H2.51248V2.0625Z" fill="white"/>
<path d="M11.25 17.0625H6.75C2.6775 17.0625 0.9375 15.3225 0.9375 11.25V8.99999C0.9375 8.69249 1.1925 8.43749 1.5 8.43749C1.8075 8.43749 2.0625 8.69249 2.0625 8.99999V11.25C2.0625 14.7075 3.2925 15.9375 6.75 15.9375H11.25C14.7075 15.9375 15.9375 14.7075 15.9375 11.25V6.74999C15.9375 4.57499 15.4275 3.31498 14.28 2.66248C14.16 2.59498 13.7625 2.415 12.6225 2.235C12.315 2.19 12.105 1.89749 12.1575 1.58999C12.21 1.28249 12.5025 1.07249 12.8025 1.12499C13.785 1.28249 14.4525 1.46248 14.835 1.67998C16.35 2.54248 17.0625 4.15499 17.0625 6.74999V11.25C17.0625 15.3225 15.3225 17.0625 11.25 17.0625Z" fill="white"/>
<path d="M13.5 10.3125H9.75C9.4425 10.3125 9.1875 10.0575 9.1875 9.75C9.1875 9.4425 9.4425 9.1875 9.75 9.1875H13.5C13.8075 9.1875 14.0625 9.4425 14.0625 9.75C14.0625 10.0575 13.8075 10.3125 13.5 10.3125Z" fill="white"/>
<path d="M13.5 13.3125H8.25C7.9425 13.3125 7.6875 13.0575 7.6875 12.75C7.6875 12.4425 7.9425 12.1875 8.25 12.1875H13.5C13.8075 12.1875 14.0625 12.4425 14.0625 12.75C14.0625 13.0575 13.8075 13.3125 13.5 13.3125Z" fill="white"/>
</svg>
