<svg width="16" height="14" viewBox="0 0 16 14" fill="none" xmlns="http://www.w3.org/2000/svg">
<path d="M11.3333 13.2708H4.66659C1.72659 13.2708 0.833252 12.4892 0.833252 9.91667V4.08333C0.833252 1.51083 1.72659 0.729168 4.66659 0.729168H5.66659C6.83325 0.729168 7.19992 1.06167 7.66659 1.60417L8.66659 2.77083C8.88659 3.0275 8.91992 3.0625 9.33325 3.0625H11.3333C14.2733 3.0625 15.1666 3.84417 15.1666 6.41667V9.91667C15.1666 12.4892 14.2733 13.2708 11.3333 13.2708ZM4.66659 1.60417C2.27992 1.60417 1.83325 2.00083 1.83325 4.08333V9.91667C1.83325 11.9992 2.27992 12.3958 4.66659 12.3958H11.3333C13.7199 12.3958 14.1666 11.9992 14.1666 9.91667V6.41667C14.1666 4.33417 13.7199 3.9375 11.3333 3.9375H9.33325C8.47992 3.9375 8.19992 3.68083 7.86659 3.29583L6.86659 2.12917C6.51992 1.72667 6.41325 1.60417 5.66659 1.60417H4.66659Z" fill="#5584FF"/>
<path d="M13.3333 4.15917C13.0599 4.15917 12.8333 3.96083 12.8333 3.72167V2.91667C12.8333 1.995 12.3866 1.60417 11.3333 1.60417H5.33325C5.05992 1.60417 4.83325 1.40583 4.83325 1.16667C4.83325 0.927501 5.05992 0.729168 5.33325 0.729168H11.3333C12.9466 0.729168 13.8333 1.505 13.8333 2.91667V3.72167C13.8333 3.96083 13.6066 4.15917 13.3333 4.15917Z" fill="#5584FF"/>
</svg>
