<svg width="16" height="16" viewBox="0 0 16 16" fill="none" xmlns="http://www.w3.org/2000/svg">
<path d="M5.99984 7.16667C4.9865 7.16667 4.1665 6.34667 4.1665 5.33333C4.1665 4.32 4.9865 3.5 5.99984 3.5C7.01317 3.5 7.83317 4.32 7.83317 5.33333C7.83317 6.34667 7.01317 7.16667 5.99984 7.16667ZM5.99984 4.5C5.53984 4.5 5.1665 4.87333 5.1665 5.33333C5.1665 5.79333 5.53984 6.16667 5.99984 6.16667C6.45984 6.16667 6.83317 5.79333 6.83317 5.33333C6.83317 4.87333 6.45984 4.5 5.99984 4.5Z" fill="white"/>
<path d="M10.0002 15.1666H6.00016C2.38016 15.1666 0.833496 13.6199 0.833496 9.99992V5.99992C0.833496 2.37992 2.38016 0.833252 6.00016 0.833252H8.66683C8.94016 0.833252 9.16683 1.05992 9.16683 1.33325C9.16683 1.60659 8.94016 1.83325 8.66683 1.83325H6.00016C2.92683 1.83325 1.8335 2.92659 1.8335 5.99992V9.99992C1.8335 13.0733 2.92683 14.1666 6.00016 14.1666H10.0002C13.0735 14.1666 14.1668 13.0733 14.1668 9.99992V6.66659C14.1668 6.39325 14.3935 6.16659 14.6668 6.16659C14.9402 6.16659 15.1668 6.39325 15.1668 6.66659V9.99992C15.1668 13.6199 13.6202 15.1666 10.0002 15.1666Z" fill="white"/>
<path d="M11.6401 4.79999C11.5135 4.79999 11.3868 4.75333 11.2868 4.65333L10.3135 3.67999C10.1201 3.48666 10.1201 3.16666 10.3135 2.97333C10.5068 2.77999 10.8268 2.77999 11.0201 2.97333L11.6401 3.59333L13.8868 1.34666C14.0801 1.15333 14.4001 1.15333 14.5935 1.34666C14.7868 1.53999 14.7868 1.85999 14.5935 2.05333L11.9935 4.65333C11.9001 4.75333 11.7668 4.79999 11.6401 4.79999Z" fill="white"/>
<path d="M1.78017 13.1333C1.62017 13.1333 1.46017 13.0533 1.36684 12.9133C1.21351 12.6866 1.27351 12.3733 1.50684 12.22L4.79351 10.0133C5.51351 9.52662 6.50684 9.58662 7.16017 10.14L7.38017 10.3333C7.71351 10.62 8.28017 10.62 8.60684 10.3333L11.3802 7.95329C12.0868 7.34662 13.2002 7.34662 13.9135 7.95329L15.0002 8.88662C15.2068 9.06662 15.2335 9.37996 15.0535 9.59329C14.8735 9.79996 14.5602 9.82662 14.3468 9.64662L13.2602 8.71329C12.9268 8.42662 12.3602 8.42662 12.0268 8.71329L9.25351 11.0933C8.54684 11.7 7.43351 11.7 6.72017 11.0933L6.50017 10.9C6.19351 10.64 5.68684 10.6133 5.34684 10.8466L2.06017 13.0533C1.97351 13.1066 1.87351 13.1333 1.78017 13.1333Z" fill="white"/>
</svg>
