<svg width="18" height="18" viewBox="0 0 18 18" fill="none" xmlns="http://www.w3.org/2000/svg">
<path d="M11.4451 16.6875H6.55511C2.87261 16.6875 1.29761 15.1125 1.29761 11.43V11.3325C1.29761 8.00249 2.61011 6.39749 5.55011 6.11999C5.85011 6.09749 6.13511 6.32249 6.16511 6.62999C6.19511 6.93749 5.97011 7.21499 5.65511 7.24499C3.30011 7.46249 2.42261 8.57249 2.42261 11.34V11.4375C2.42261 14.49 3.50261 15.57 6.55511 15.57H11.4451C14.4976 15.57 15.5776 14.49 15.5776 11.4375V11.34C15.5776 8.55749 14.6851 7.44749 12.2851 7.24499C11.9776 7.21499 11.7451 6.94499 11.7751 6.63749C11.8051 6.32999 12.0676 6.09749 12.3826 6.12749C15.3676 6.38249 16.7026 7.99499 16.7026 11.3475V11.445C16.7026 15.1125 15.1276 16.6875 11.4451 16.6875Z" fill="#5584FF"/>
<path d="M9 11.7225C8.6925 11.7225 8.4375 11.4675 8.4375 11.16V1.5C8.4375 1.1925 8.6925 0.9375 9 0.9375C9.3075 0.9375 9.5625 1.1925 9.5625 1.5V11.16C9.5625 11.475 9.3075 11.7225 9 11.7225Z" fill="#5584FF"/>
<path d="M8.99988 12.5625C8.85738 12.5625 8.71488 12.51 8.60238 12.3975L6.08988 9.88501C5.87238 9.66751 5.87238 9.3075 6.08988 9.09C6.30738 8.8725 6.66738 8.8725 6.88488 9.09L8.99988 11.205L11.1149 9.09C11.3324 8.8725 11.6924 8.8725 11.9099 9.09C12.1274 9.3075 12.1274 9.66751 11.9099 9.88501L9.39738 12.3975C9.28488 12.51 9.14238 12.5625 8.99988 12.5625Z" fill="#5584FF"/>
</svg>
