<svg width="91" height="25" viewBox="0 0 91 25" fill="none" xmlns="http://www.w3.org/2000/svg">
<g clip-path="url(#clip0_198_2)">
<path d="M10.4459 24.7144C10.0227 24.7144 9.59609 24.6078 9.20042 24.3841C7.99618 23.696 7.57985 22.1615 8.26799 20.9607L16.1024 7.27018C16.7906 6.06594 18.3251 5.64962 19.5259 6.33775C20.7301 7.02589 21.1465 8.56044 20.4583 9.76123L12.6239 23.4517C12.1594 24.2603 11.313 24.7144 10.4425 24.7144H10.4459Z" fill="#7EA1FD"/>
<path d="M2.50845 24.7146C2.09556 24.7146 1.67236 24.6114 1.287 24.3946C0.0758837 23.7203 -0.354202 22.1891 0.320172 20.978L11.3235 1.287C11.9978 0.0758837 13.529 -0.354202 14.7401 0.320172C15.9512 0.994546 16.3813 2.52565 15.7069 3.73677L4.70016 23.4312C4.23911 24.2536 3.38582 24.7181 2.50845 24.7181V24.7146Z" fill="#5584FF"/>
<path d="M18.7346 24.7144C18.3114 24.7144 17.8778 24.6078 17.4856 24.3807C16.2848 23.6891 15.8719 22.1546 16.5635 20.9538L19.8046 15.3248C20.4962 14.124 22.0307 13.7111 23.2315 14.4027C24.4323 15.0943 24.8452 16.6288 24.1536 17.8296L20.9125 23.4586C20.448 24.2637 19.6051 24.7179 18.7346 24.7179V24.7144Z" fill="#B6C5EB"/>
<path d="M47.4814 24.6387H44.6704L42.372 18.5591H33.1785L31.0178 24.6387H28.1895L36.5056 2.95557H39.1378L47.4849 24.6387H47.4814ZM41.5394 16.2779L38.1365 7.03966C38.0264 6.73688 37.9163 6.25174 37.8028 5.58769H37.7408C37.6411 6.20357 37.5241 6.68527 37.3933 7.03966L34.0215 16.2779H41.5359H41.5394Z" fill="white"/>
<path d="M72.7773 24.6388H70.2519V10.0915C70.2519 8.94235 70.3207 7.53512 70.4652 5.87327H70.4033C70.1624 6.85042 69.9457 7.55232 69.753 7.97552L62.3452 24.6388H61.1066L53.7125 8.09595C53.4992 7.61081 53.2824 6.87106 53.0622 5.87327H53.0003C53.0794 6.74032 53.1207 8.15788 53.1207 10.1225V24.6388H50.671V2.95557H54.0291L60.6833 18.0774C61.196 19.2369 61.5298 20.1039 61.6811 20.6785H61.7706C62.2041 19.488 62.5516 18.6004 62.8131 18.0189L69.6016 2.95901H72.7773V24.6422V24.6388Z" fill="white"/>
<path d="M77.4635 23.7614V20.768C77.8076 21.0708 78.217 21.3426 78.6953 21.5834C79.1735 21.8243 79.6793 22.0307 80.2057 22.1959C80.7356 22.361 81.2655 22.4918 81.8022 22.5812C82.3389 22.6707 82.831 22.7189 83.2851 22.7189C84.8472 22.7189 86.0136 22.4298 86.7843 21.8484C87.555 21.2703 87.9404 20.4342 87.9404 19.347C87.9404 18.7621 87.8131 18.2528 87.555 17.8193C87.297 17.3858 86.9426 16.9901 86.4884 16.6323C86.0342 16.2745 85.4975 15.9304 84.8782 15.6035C84.2588 15.2767 83.5914 14.9291 82.8757 14.5679C82.1187 14.186 81.4134 13.7972 80.7597 13.4049C80.1059 13.0127 79.5348 12.5792 79.0497 12.1043C78.5645 11.6295 78.186 11.0928 77.9073 10.4941C77.6287 9.89543 77.491 9.19009 77.491 8.38497C77.491 7.39749 77.7078 6.53732 78.1413 5.8079C78.5748 5.07847 79.146 4.47635 79.8513 4.00154C80.5567 3.52672 81.3618 3.17577 82.2633 2.94181C83.1647 2.71128 84.0868 2.5943 85.0227 2.5943C87.1593 2.5943 88.718 2.85235 89.6951 3.36501V6.22422C88.4152 5.33652 86.7705 4.89268 84.7646 4.89268C84.2107 4.89268 83.6567 4.95117 83.1028 5.06815C82.5488 5.18513 82.0534 5.37437 81.6198 5.63586C81.1863 5.89735 80.8319 6.23454 80.5601 6.64742C80.2883 7.06031 80.1507 7.56608 80.1507 8.15788C80.1507 8.71183 80.2539 9.19009 80.4603 9.59265C80.6668 9.99521 80.973 10.3634 81.3756 10.6971C81.7781 11.0309 82.2701 11.3508 82.8516 11.6639C83.4296 11.977 84.0971 12.3177 84.8541 12.6927C85.6317 13.0746 86.3645 13.4806 87.063 13.9038C87.7615 14.327 88.367 14.795 88.8934 15.3111C89.4199 15.8272 89.8328 16.3949 90.1424 17.0211C90.4486 17.6473 90.6035 18.3629 90.6035 19.1681C90.6035 20.2381 90.3936 21.1396 89.9773 21.8828C89.5609 22.626 88.9932 23.2246 88.2844 23.6891C87.5757 24.1536 86.7533 24.4874 85.8278 24.6938C84.9023 24.9002 83.9217 25.0035 82.8929 25.0035C82.5488 25.0035 82.1256 24.9759 81.6233 24.9209C81.1209 24.8658 80.6048 24.7833 80.0819 24.68C79.5589 24.5768 79.06 24.4426 78.592 24.2878C78.1241 24.133 77.7491 23.9575 77.4669 23.7648L77.4635 23.7614Z" fill="white"/>
</g>
<defs>
<clipPath id="clip0_198_2">
<rect width="90.6035" height="25" fill="white"/>
</clipPath>
</defs>
</svg>
