<svg width="40" height="40" viewBox="0 0 40 40" fill="none" xmlns="http://www.w3.org/2000/svg">
<path d="M14.9998 17.9167C12.4665 17.9167 10.4165 15.8667 10.4165 13.3333C10.4165 10.8 12.4665 8.75 14.9998 8.75C17.5332 8.75 19.5832 10.8 19.5832 13.3333C19.5832 15.8667 17.5332 17.9167 14.9998 17.9167ZM14.9998 11.25C13.8498 11.25 12.9165 12.1833 12.9165 13.3333C12.9165 14.4833 13.8498 15.4167 14.9998 15.4167C16.1498 15.4167 17.0832 14.4833 17.0832 13.3333C17.0832 12.1833 16.1498 11.25 14.9998 11.25Z" fill="white"/>
<path d="M25.0002 37.9167H15.0002C5.95016 37.9167 2.0835 34.05 2.0835 25V15C2.0835 5.95004 5.95016 2.08337 15.0002 2.08337H21.6668C22.3502 2.08337 22.9168 2.65004 22.9168 3.33337C22.9168 4.01671 22.3502 4.58337 21.6668 4.58337H15.0002C7.31683 4.58337 4.5835 7.31671 4.5835 15V25C4.5835 32.6834 7.31683 35.4167 15.0002 35.4167H25.0002C32.6835 35.4167 35.4168 32.6834 35.4168 25V16.6667C35.4168 15.9834 35.9835 15.4167 36.6668 15.4167C37.3502 15.4167 37.9168 15.9834 37.9168 16.6667V25C37.9168 34.05 34.0502 37.9167 25.0002 37.9167Z" fill="white"/>
<path d="M29.1001 12C28.7834 12 28.4667 11.8833 28.2167 11.6333L25.7834 9.19998C25.3001 8.71665 25.3001 7.91665 25.7834 7.43332C26.2667 6.94998 27.0667 6.94998 27.5501 7.43332L29.1001 8.98332L34.7167 3.36665C35.2001 2.88332 36.0001 2.88332 36.4834 3.36665C36.9667 3.84998 36.9667 4.64998 36.4834 5.13332L29.9834 11.6333C29.7501 11.8833 29.4167 12 29.1001 12Z" fill="white"/>
<path d="M4.44995 32.8334C4.04995 32.8334 3.64995 32.6334 3.41661 32.2834C3.03328 31.7167 3.18328 30.9333 3.76661 30.55L11.9833 25.0334C13.7833 23.8167 16.2666 23.9667 17.8999 25.35L18.4499 25.8333C19.2833 26.55 20.6999 26.55 21.5166 25.8333L28.4499 19.8833C30.2166 18.3667 32.9999 18.3667 34.7833 19.8833L37.4999 22.2167C38.0166 22.6667 38.0833 23.45 37.6333 23.9834C37.1833 24.5 36.3999 24.5667 35.8666 24.1167L33.1499 21.7833C32.3166 21.0667 30.8999 21.0667 30.0666 21.7833L23.1333 27.7333C21.3666 29.25 18.5833 29.25 16.7999 27.7333L16.2499 27.25C15.4833 26.6 14.2166 26.5333 13.3666 27.1167L5.14995 32.6333C4.93328 32.7667 4.68328 32.8334 4.44995 32.8334Z" fill="white"/>
</svg>
