<svg width="40" height="40" viewBox="0 0 40 40" fill="none" xmlns="http://www.w3.org/2000/svg">
<path d="M11.7999 26.8333C11.1999 26.8333 10.6 26.6833 10.05 26.3667C8.9333 25.7333 8.26662 24.6 8.26662 23.3333V17.3833C8.26662 16.95 7.98328 16.2167 7.63328 15.8L3.43325 11.3833C2.64991 10.6166 2.08325 9.28332 2.08325 8.26665V5.68334C2.08325 3.66667 3.61654 2.06665 5.58321 2.06665H20.4166C22.3499 2.06665 23.9165 3.63333 23.9165 5.56666V8.03335C23.9165 9.33335 23.1666 10.7667 22.4333 11.5L17.55 15.8167C17.1666 16.1333 16.8499 16.9 16.8499 17.4667V22.3C16.8499 23.45 16.1499 24.7334 15.2333 25.2834L13.6999 26.2833C13.0999 26.65 12.4499 26.8333 11.7999 26.8333ZM5.58321 4.58333C5.01654 4.58333 4.58325 5.06669 4.58325 5.70002V8.28334C4.58325 8.56667 4.86661 9.28335 5.23328 9.65001L9.5332 14.1667C10.1665 14.95 10.7832 16.2333 10.7832 17.3833V23.3333C10.7832 23.8333 11.1 24.0833 11.3 24.1833C11.5666 24.3333 11.9999 24.4167 12.3666 24.1833L13.9165 23.1833C14.1165 23.0667 14.3499 22.6 14.3499 22.3167V17.4833C14.3499 16.1666 14.9999 14.7166 15.9166 13.9333L20.7166 9.68333C21.0166 9.38333 21.4165 8.56668 21.4165 8.03335V5.56666C21.4165 5.01666 20.9666 4.56665 20.4166 4.56665H5.58321V4.58333Z" fill="white"/>
<path d="M24.9999 37.9166H14.9999C5.94992 37.9166 2.08325 34.0499 2.08325 24.9999V19.9999C2.08325 19.3166 2.64992 18.7499 3.33325 18.7499C4.01659 18.7499 4.58325 19.3166 4.58325 19.9999V24.9999C4.58325 32.6833 7.31659 35.4166 14.9999 35.4166H24.9999C32.6833 35.4166 35.4166 32.6833 35.4166 24.9999V14.9999C35.4166 10.1666 34.2832 7.36659 31.7332 5.91659C31.4666 5.76659 30.5833 5.36663 28.0499 4.96663C27.3666 4.86663 26.9 4.2166 27.0166 3.53327C27.1333 2.84993 27.7833 2.38327 28.4499 2.49994C30.6333 2.84994 32.1166 3.24992 32.9666 3.73326C36.3333 5.64992 37.9166 9.23327 37.9166 14.9999V24.9999C37.9166 34.0499 34.0499 37.9166 24.9999 37.9166Z" fill="white"/>
<path d="M30.0001 22.9166H21.6667C20.9834 22.9166 20.4167 22.35 20.4167 21.6666C20.4167 20.9833 20.9834 20.4166 21.6667 20.4166H30.0001C30.6834 20.4166 31.2501 20.9833 31.2501 21.6666C31.2501 22.35 30.6834 22.9166 30.0001 22.9166Z" fill="white"/>
<path d="M29.9999 29.5834H18.3333C17.6499 29.5834 17.0833 29.0167 17.0833 28.3334C17.0833 27.65 17.6499 27.0834 18.3333 27.0834H29.9999C30.6833 27.0834 31.2499 27.65 31.2499 28.3334C31.2499 29.0167 30.6833 29.5834 29.9999 29.5834Z" fill="white"/>
</svg>
