<svg width="40" height="40" viewBox="0 0 40 40" fill="none" xmlns="http://www.w3.org/2000/svg">
<path d="M22.4997 9.58333H17.4664C15.433 9.58333 13.7497 7.9333 13.7164 5.89996L13.6664 3.35002C13.6497 2.66668 14.1997 2.08332 14.883 2.06665C14.8997 2.06665 14.8997 2.06665 14.9164 2.06665C15.5997 2.06665 16.1497 2.61662 16.1664 3.28328L16.2164 5.83333C16.233 6.5 16.7997 7.06665 17.4664 7.06665H22.4997C23.1997 7.06665 23.7497 6.49998 23.7497 5.81665V3.33333C23.7497 2.65 24.3164 2.08333 24.9997 2.08333C25.683 2.08333 26.2497 2.65 26.2497 3.33333V5.83333C26.2497 7.9 24.5664 9.58333 22.4997 9.58333Z" fill="white"/>
<path d="M28.3331 36.25C28.0164 36.25 27.6997 36.1333 27.4497 35.8833L24.1164 32.55C23.6331 32.0667 23.6331 31.2666 24.1164 30.7832L27.4497 27.4499C27.9331 26.9666 28.7331 26.9666 29.2164 27.4499C29.6997 27.9332 29.6997 28.7333 29.2164 29.2167L26.7664 31.6666L29.2164 34.1166C29.6997 34.5999 29.6997 35.4 29.2164 35.8833C28.9664 36.1333 28.6497 36.25 28.3331 36.25Z" fill="white"/>
<path d="M33.3332 36.25C33.0166 36.25 32.6999 36.1333 32.4499 35.8833C31.9666 35.4 31.9666 34.5999 32.4499 34.1166L34.8999 31.6666L32.4499 29.2167C31.9666 28.7333 31.9666 27.9332 32.4499 27.4499C32.9332 26.9666 33.7332 26.9666 34.2166 27.4499L37.5499 30.7832C38.0332 31.2666 38.0332 32.0667 37.5499 32.55L34.2166 35.8833C33.9666 36.1333 33.6499 36.25 33.3332 36.25Z" fill="white"/>
<path d="M21.6667 37.9167H13.3333C7.25 37.9167 3.75 34.4167 3.75 28.3334V11.6667C3.75 5.58337 7.25 2.08337 13.3333 2.08337H26.6667C32.75 2.08337 36.25 5.58337 36.25 11.6667V23.3334C36.25 24.0167 35.6833 24.5834 35 24.5834C34.3167 24.5834 33.75 24.0167 33.75 23.3334V11.6667C33.75 6.90004 31.4333 4.58337 26.6667 4.58337H13.3333C8.56667 4.58337 6.25 6.90004 6.25 11.6667V28.3334C6.25 33.1 8.56667 35.4167 13.3333 35.4167H21.6667C22.35 35.4167 22.9167 35.9834 22.9167 36.6667C22.9167 37.35 22.35 37.9167 21.6667 37.9167Z" fill="white"/>
</svg>
