<svg width="40" height="40" viewBox="0 0 40 40" fill="none" xmlns="http://www.w3.org/2000/svg">
<path d="M36.6668 37.9166H3.3335C2.65016 37.9166 2.0835 37.35 2.0835 36.6666C2.0835 35.9833 2.65016 35.4166 3.3335 35.4166H36.6668C37.3502 35.4166 37.9168 35.9833 37.9168 36.6666C37.9168 37.35 37.3502 37.9166 36.6668 37.9166Z" fill="white"/>
<path d="M23.75 37.9167H16.25C15.5667 37.9167 15 37.35 15 36.6667V6.66671C15 3.80004 16.5833 2.08337 19.25 2.08337H20.75C23.4167 2.08337 25 3.80004 25 6.66671V36.6667C25 37.35 24.4333 37.9167 23.75 37.9167ZM17.5 35.4167H22.5V6.66671C22.5 4.75004 21.6 4.58337 20.75 4.58337H19.25C18.4 4.58337 17.5 4.75004 17.5 6.66671V35.4167Z" fill="white"/>
<path d="M11.6667 37.9167H5C4.31667 37.9167 3.75 37.35 3.75 36.6667V16.6667C3.75 13.8 5.21667 12.0834 7.66667 12.0834H9C11.45 12.0834 12.9167 13.8 12.9167 16.6667V36.6667C12.9167 37.35 12.35 37.9167 11.6667 37.9167ZM6.25 35.4167H10.4167V16.6667C10.4167 14.5834 9.5 14.5834 9 14.5834H7.66667C7.16667 14.5834 6.25 14.5834 6.25 16.6667V35.4167Z" fill="white"/>
<path d="M35.0002 37.9166H28.3335C27.6502 37.9166 27.0835 37.35 27.0835 36.6666V25C27.0835 22.1333 28.5502 20.4166 31.0002 20.4166H32.3335C34.7835 20.4166 36.2502 22.1333 36.2502 25V36.6666C36.2502 37.35 35.6835 37.9166 35.0002 37.9166ZM29.5835 35.4166H33.7502V25C33.7502 22.9166 32.8335 22.9166 32.3335 22.9166H31.0002C30.5002 22.9166 29.5835 22.9166 29.5835 25V35.4166Z" fill="white"/>
</svg>
